<?xml version="1.0" encoding="UTF-8"?>
<svg version="1.1" xmlns="http://www.w3.org/2000/svg" width="179" height="168">
<path d="M0 0 C59.07 0 118.14 0 179 0 C179 55.44 179 110.88 179 168 C119.93 168 60.86 168 0 168 C0 112.56 0 57.12 0 0 Z " fill="#FEFCFA" transform="translate(0,0)"/>
<path d="M0 0 C59.07 0 118.14 0 179 0 C179 55.44 179 110.88 179 168 C119.93 168 60.86 168 0 168 C0 112.56 0 57.12 0 0 Z M36 25 C34.86498047 25.99580078 34.86498047 25.99580078 33.70703125 27.01171875 C19.34625779 40.38379868 10.66059427 59.63214461 9.78515625 79.18359375 C9.15105432 101.14935419 15.7461175 122.31889868 30.625 138.75 C44.91442715 153.85148152 63.40531575 163.45147895 84.41015625 164.203125 C108.03695062 164.59913298 129.03631541 158.08274576 146.48266602 141.6105957 C161.67759305 126.71573559 169.81655416 106.05510994 170.29296875 84.94824219 C170.44524733 65.37283025 164.37514627 46.66173349 151 32 C150.22269531 31.11957031 149.44539062 30.23914063 148.64453125 29.33203125 C134.98931607 14.70864719 115.98263782 5.39775181 95.86328125 4.6640625 C72.43592844 4.33777131 53.67914268 9.03075713 36 25 Z " fill="#FEFDFB" transform="translate(0,0)"/>
<path d="M0 0 C8.19742179 3.66267782 12.23225374 12.72535115 15.4375 20.6875 C15.9701939 22.12064717 16.4958887 23.55655087 17 25 C18.65 24.67 20.3 24.34 22 24 C22 24.66 22 25.32 22 26 C21.34 26 20.68 26 20 26 C20 28.97 20 31.94 20 35 C20.99 35 21.98 35 23 35 C23.10828125 36.16015625 23.2165625 37.3203125 23.328125 38.515625 C23.87723722 42.88164312 25.12899212 46.67726823 26.75 50.75 C27.01876953 51.44319336 27.28753906 52.13638672 27.56445312 52.85058594 C28.36567471 54.9047817 29.1807644 56.9529325 30 59 C30.42796875 60.0828125 30.8559375 61.165625 31.296875 62.28125 C36.62922373 76.475854 36.62922373 76.475854 46 88 C46.33 88.33 46.66 88.66 47 89 C50.52637472 89.15672777 53.61905851 89.04028969 57 88 C56 91 56 91 54 92 C52.08203125 92.30859375 52.08203125 92.30859375 49.8125 92.4375 C49.07644531 92.49808594 48.34039062 92.55867188 47.58203125 92.62109375 C42.70850248 91.44879258 39.34707144 88.00454547 36.59741211 83.9128418 C35.34004822 81.68181304 34.18424336 79.42701246 33.0625 77.125 C32.66482422 76.34125 32.26714844 75.5575 31.85742188 74.75 C30.89095352 72.84035169 29.94344808 70.92112557 29 69 C28.34 69 27.68 69 27 69 C27 68.34 27 67.68 27 67 C26.01 67 25.02 67 24 67 C23.34 70.3 22.68 73.6 22 77 C21.01 77.33 20.02 77.66 19 78 C18.505 79.485 18.505 79.485 18 81 C16.7922442 77.37673261 17.45688872 76.35853631 19 73 C18.01 72.505 18.01 72.505 17 72 C16.896875 72.66 16.79375 73.32 16.6875 74 C15.80786436 77.83841009 14.43030104 81.33096691 13 85 C12.34 85 11.68 85 11 85 C11 83.68 11 82.36 11 81 C10.34 81 9.68 81 9 81 C9 81.99 9 82.98 9 84 C8.34 84 7.68 84 7 84 C7.33 85.32 7.66 86.64 8 88 C7.01 88.33 6.02 88.66 5 89 C5.47939368 84.28596212 5.96834048 80.33420699 8 76 C9.32 76 10.64 76 12 76 C12.33 75.34 12.66 74.68 13 74 C11.35 73.67 9.7 73.34 8 73 C7.01 75.97 6.02 78.94 5 82 C3.35 82 1.7 82 0 82 C0 82.66 0 83.32 0 84 C0.99 84 1.98 84 3 84 C2.67 86.31 2.34 88.62 2 91 C1.01 91 0.02 91 -1 91 C-0.67 89.35 -0.34 87.7 0 86 C-0.53625 86.680625 -1.0725 87.36125 -1.625 88.0625 C-4 90 -4 90 -6.9375 89.9375 C-10.04193199 88.98716368 -12.38613399 87.9219603 -15 86 C-15 85.34 -15 84.68 -15 84 C-13.35 84.33 -11.7 84.66 -10 85 C-12.68841859 82.74754119 -14.64641875 81.11786042 -18 80 C-18 79.34 -18 78.68 -18 78 C-15.6568787 78.25561323 -13.32156597 78.59270772 -11 79 C-10.505 79.99 -10.505 79.99 -10 81 C-7.97536745 81.65213292 -7.97536745 81.65213292 -6 82 C-6.185625 82.639375 -6.37125 83.27875 -6.5625 83.9375 C-6.706875 84.618125 -6.85125 85.29875 -7 86 C-6.505 86.495 -6.505 86.495 -6 87 C-5.67 85.35 -5.34 83.7 -5 82 C-4.34 82 -3.68 82 -3 82 C-3 80.68 -3 79.36 -3 78 C-0.03 78.495 -0.03 78.495 3 79 C3 78.01 3 77.02 3 76 C2.236875 76.020625 1.47375 76.04125 0.6875 76.0625 C-2 76 -2 76 -5 75 C-6.32 75 -7.64 75 -9 75 C-9 75.66 -9 76.32 -9 77 C-7.68 77.33 -6.36 77.66 -5 78 C-7.6666419 79.33332095 -9.16680303 78.67102033 -12 78 C-11.67 75.36 -11.34 72.72 -11 70 C-7.58978257 70.78697325 -4.31114834 71.87119943 -1 73 C-1 72.01 -1 71.02 -1 70 C-2.32 69.67 -3.64 69.34 -5 69 C-5 67.68 -5 66.36 -5 65 C-5.33 65.99 -5.66 66.98 -6 68 C-7.98 68 -9.96 68 -12 68 C-12.144375 68.5775 -12.28875 69.155 -12.4375 69.75 C-12.95833333 71.83333333 -13.47916667 73.91666667 -14 76 C-14.99 76 -15.98 76 -17 76 C-17.33 74.68 -17.66 73.36 -18 72 C-18.66 74.31 -19.32 76.62 -20 79 C-20.66 79 -21.32 79 -22 79 C-22.33 78.01 -22.66 77.02 -23 76 C-22.34 76 -21.68 76 -21 76 C-21.165 75.401875 -21.33 74.80375 -21.5 74.1875 C-22 72 -22 72 -22 69 C-22.33 70.32 -22.66 71.64 -23 73 C-23.99 72.67 -24.98 72.34 -26 72 C-26 70.68 -26 69.36 -26 68 C-27.32 67.67 -28.64 67.34 -30 67 C-30 64 -30 64 -28 62 C-27.54188325 60.02764667 -27.54188325 60.02764667 -27.375 57.875 C-27.25125 56.59625 -27.1275 55.3175 -27 54 C-27.66 54 -28.32 54 -29 54 C-29 54.66 -29 55.32 -29 56 C-29.66 56 -30.32 56 -31 56 C-31 55.34 -31 54.68 -31 54 C-32.32 54 -33.64 54 -35 54 C-34.48988085 47.43385089 -33.22533228 41.88838805 -30.875 35.75 C-30.56224121 34.92443604 -30.24948242 34.09887207 -29.92724609 33.24829102 C-25.24062589 21.17231549 -16.04460739 -2.29208677 0 0 Z " fill="#E8B197" transform="translate(67,38)"/>
<path d="M0 0 C0.66 0 1.32 0 2 0 C1.74438677 2.3431213 1.40729228 4.67843403 1 7 C-1.49092811 8.24546405 -2.41080733 7.7767578 -5 7 C-4.34 7.66 -3.68 8.32 -3 9 C-2.01 9 -1.02 9 0 9 C0.33 9.99 0.66 10.98 1 12 C1.99 11.67 2.98 11.34 4 11 C3.67 12.98 3.34 14.96 3 17 C3.99 17 4.98 17 6 17 C5.979375 16.05125 5.95875 15.1025 5.9375 14.125 C6 11 6 11 7 9 C5.68 9 4.36 9 3 9 C3.33 8.01 3.66 7.02 4 6 C4.66 6 5.32 6 6 6 C6 6.66 6 7.32 6 8 C6.66 8 7.32 8 8 8 C8 7.01 8 6.02 8 5 C6.68 5 5.36 5 4 5 C4 3.68 4 2.36 4 1 C6.92879371 1.62759865 9.36095629 2.58622659 12 4 C12 4.99 12 5.98 12 7 C11.34 7 10.68 7 10 7 C10 7.66 10 8.32 10 9 C11.093125 9.020625 12.18625 9.04125 13.3125 9.0625 C14.529375 9.371875 15.74625 9.68125 17 10 C18.75 13.5 18.75 13.5 20 17 C20.99 17.33 21.98 17.66 23 18 C23 19.32 23 20.64 23 22 C23.99 22.33 24.98 22.66 26 23 C25.67 25.64 25.34 28.28 25 31 C23.68 31 22.36 31 21 31 C21 31.66 21 32.32 21 33 C21.66 33 22.32 33 23 33 C23 34.65 23 36.3 23 38 C23.99 38.33 24.98 38.66 26 39 C26 40.65 26 42.3 26 44 C26.99 44.495 26.99 44.495 28 45 C28 43.35 28 41.7 28 40 C28.99 40.33 29.98 40.66 31 41 C30.67 42.65 30.34 44.3 30 46 C31.32 46.33 32.64 46.66 34 47 C35.44060393 52.31788651 34.31975673 55.79795229 32.0625 60.625 C31.74474609 61.32359131 31.42699219 62.02218262 31.09960938 62.74194336 C26.73070984 72.05992036 21.22193302 81.56815873 13 88 C12.01 88.33 11.02 88.66 10 89 C10 88.34 10 87.68 10 87 C9.46375 87.33 8.9275 87.66 8.375 88 C5.27953927 89.30335189 3.33425359 89.47632194 0 89 C-9.49248154 81.35970998 -14.6500706 69.04702579 -18.140625 57.66015625 C-18.88745825 55.34836787 -19.69919327 53.08460919 -20.546875 50.80859375 C-20.82595703 50.05030273 -21.10503906 49.29201172 -21.39257812 48.51074219 C-21.9561646 46.98366675 -22.52756393 45.45944792 -23.10742188 43.93847656 C-24.48301073 40.1701864 -25.23669513 37.8294063 -24 34 C-24.99 34 -25.98 34 -27 34 C-27.625 32.125 -27.625 32.125 -28 30 C-27.34 29.34 -26.68 28.68 -26 28 C-22.375 28.375 -22.375 28.375 -19 29 C-19 28.34 -19 27.68 -19 27 C-20.32 27 -21.64 27 -23 27 C-22.54091237 21.67458345 -21.98276719 17.58067819 -19 13 C-16.4375 11.3125 -16.4375 11.3125 -14 10 C-13.34 9.01 -12.68 8.02 -12 7 C-11.34 7 -10.68 7 -10 7 C-10 8.65 -10 10.3 -10 12 C-9.34 12 -8.68 12 -8 12 C-7.855625 11.2575 -7.71125 10.515 -7.5625 9.75 C-7.09812508 7.47972261 -6.58136431 5.24240521 -6 3 C-4.68 3.33 -3.36 3.66 -2 4 C-1.34 2.68 -0.68 1.36 0 0 Z " fill="#E3925E" transform="translate(114,39)"/>
<path d="M0 0 C1.13743652 0.00902344 2.27487305 0.01804687 3.44677734 0.02734375 C22.22095989 0.41152483 40.22423283 6.61467272 54.25 19.4375 C55.58804688 20.63826172 55.58804688 20.63826172 56.953125 21.86328125 C67.00188318 31.34919915 73.66647365 42.39875647 78.25 55.4375 C78.5696875 56.33339844 78.889375 57.22929688 79.21875 58.15234375 C85.04485633 77.38388919 81.39952964 99.88804693 72.33154297 117.49267578 C61.3873469 137.17246491 44.0910382 151.04965576 22.375 157.25 C1.7730532 162.57808969 -20.53108759 160.07427825 -39.01953125 149.58203125 C-58.04981147 137.34304487 -71.25483391 120.51794624 -77.05859375 98.65625 C-81.47042814 78.11754076 -78.86826362 55.67162577 -67.48828125 37.73046875 C-55.09261425 19.28438823 -37.76863027 6.32413728 -16.02783203 1.06152344 C-10.67841245 0.04311762 -5.43247315 -0.05202428 0 0 Z M-58.75 31.4375 C-69.98566566 45.71523324 -75.11737078 60.65361797 -75.0625 78.75 C-75.07861328 79.80123047 -75.09472656 80.85246094 -75.11132812 81.93554688 C-75.11597978 89.50379724 -73.90969612 96.19695872 -71.75 103.4375 C-71.40839844 104.60023437 -71.06679687 105.76296875 -70.71484375 106.9609375 C-63.9566159 125.71951671 -49.65768966 140.68039338 -31.81542969 149.38085938 C-11.45926445 158.62531336 8.89942193 158.68695607 29.9375 151.1875 C43.18375509 145.78611443 54.57048857 136.81065291 63.25 125.4375 C63.98476563 124.49390625 63.98476563 124.49390625 64.734375 123.53125 C76.32005572 107.52628901 79.94463811 87.08798133 77.8515625 67.7578125 C75.51077907 53.37871426 69.19373748 40.11620938 59.25 29.4375 C58.0434375 28.138125 58.0434375 28.138125 56.8125 26.8125 C55.966875 26.02875 55.12125 25.245 54.25 24.4375 C53.61707031 23.82261719 52.98414063 23.20773438 52.33203125 22.57421875 C44.99708972 15.68067193 36.65033622 11.00314477 27.25 7.4375 C26.445625 7.08558594 25.64125 6.73367187 24.8125 6.37109375 C-5.49034035 -5.19395303 -38.26042663 8.47242055 -58.75 31.4375 Z " fill="#DE634F" transform="translate(88.75,4.5625)"/>
<path d="M0 0 C4.32420708 0.57015471 7.84361745 1.64698672 11.8125 3.4375 C20.14100656 7.00099171 28.00818511 8.28666187 37 9 C35.04063496 21.38679047 26.22801858 34.03679063 16.640625 41.87890625 C12.73163669 44.55004826 9.79494797 45.68499257 5 45 C-2.53593882 38.93448827 -8.19948386 29.18011514 -11 20 C-10.13077289 16.6605964 -8.49889665 14.00149104 -6.625 11.125 C-4.28960474 7.47984301 -2.12229567 3.77297008 0 0 Z " fill="#FEFCF8" transform="translate(109,83)"/>
<path d="M0 0 C2.4375 1.9375 2.4375 1.9375 5 5 C5.67675781 5.80824219 5.67675781 5.80824219 6.3671875 6.6328125 C12.03715572 14.20298628 19 27.37681818 19 37 C14.38 37.33 9.76 37.66 5 38 C3.27473958 35.20052083 1.54947917 32.40104167 -0.17578125 29.6015625 C-1.90437775 26.80173188 -1.90437775 26.80173188 -5 25 C-9.08298226 24.44090539 -9.08298226 24.44090539 -13 25 C-17.37481503 28.58871546 -19.67053282 32.65785694 -22.125 37.625 C-26.36550633 46.10601266 -26.36550633 46.10601266 -29 48 C-29.99 48 -30.98 48 -32 48 C-29.15821047 31.80179967 -21.33271788 13.11216024 -9 2 C-5.83503084 0.16265835 -3.67889202 -0.62810352 0 0 Z " fill="#FEF8F6" transform="translate(67,40)"/>
<path d="M0 0 C8.19742179 3.66267782 12.23225374 12.72535115 15.4375 20.6875 C15.9701939 22.12064717 16.4958887 23.55655087 17 25 C18.65 24.67 20.3 24.34 22 24 C22 24.66 22 25.32 22 26 C21.34 26 20.68 26 20 26 C20 28.97 20 31.94 20 35 C20.99 35 21.98 35 23 35 C23.10828125 36.16015625 23.2165625 37.3203125 23.328125 38.515625 C23.87723722 42.88164312 25.12899212 46.67726823 26.75 50.75 C27.01876953 51.44319336 27.28753906 52.13638672 27.56445312 52.85058594 C28.36567471 54.9047817 29.1807644 56.9529325 30 59 C30.42796875 60.0828125 30.8559375 61.165625 31.296875 62.28125 C36.62922373 76.475854 36.62922373 76.475854 46 88 C46.33 88.33 46.66 88.66 47 89 C50.52637472 89.15672777 53.61905851 89.04028969 57 88 C56 91 56 91 54 92 C52.08203125 92.30859375 52.08203125 92.30859375 49.8125 92.4375 C49.07644531 92.49808594 48.34039062 92.55867188 47.58203125 92.62109375 C42.70850248 91.44879258 39.34707144 88.00454547 36.59741211 83.9128418 C35.34004822 81.68181304 34.18424336 79.42701246 33.0625 77.125 C32.66482422 76.34125 32.26714844 75.5575 31.85742188 74.75 C30.89095352 72.84035169 29.94344808 70.92112557 29 69 C28.34 69 27.68 69 27 69 C27 68.34 27 67.68 27 67 C24.03 67.495 24.03 67.495 21 68 C21 67.34 21 66.68 21 66 C20.236875 66.103125 19.47375 66.20625 18.6875 66.3125 C17.800625 66.209375 16.91375 66.10625 16 66 C14.4375 63.625 14.4375 63.625 13 61 C10.93299345 59.67206394 10.93299345 59.67206394 9 59 C9 57.02 9 55.04 9 53 C7.68 52.67 6.36 52.34 5 52 C5.66 51.01 6.32 50.02 7 49 C7 49.99 7 50.98 7 52 C7.99 52 8.98 52 10 52 C8.515 47.545 8.515 47.545 7 43 C10.97591818 41.19276446 14.6850046 40.56415134 19 40 C12.91197353 20.31763377 12.91197353 20.31763377 1 4 C0.67 3.67 0.34 3.34 0 3 C-1.85772162 3.08984301 -3.71247985 3.24611861 -5.5625 3.4375 C-6.57441406 3.53933594 -7.58632813 3.64117187 -8.62890625 3.74609375 C-9.41136719 3.82988281 -10.19382813 3.91367187 -11 4 C-7.43363078 0.27152309 -5.24493402 -0.50432058 0 0 Z " fill="#E47F56" transform="translate(67,38)"/>
<path d="M0 0 C8.35352783 3.90940349 16.09042844 7.77406096 23 14 C24.34191406 15.20269531 24.34191406 15.20269531 25.7109375 16.4296875 C35.75196685 25.92052346 42.41685298 36.96233555 47 50 C47.3196875 50.89589844 47.639375 51.79179688 47.96875 52.71484375 C53.79485633 71.94638919 50.14952964 94.45054693 41.08154297 112.05517578 C30.03319801 131.92224485 12.69585539 145.53480164 -9.125 151.9375 C-12.52277191 152.86004044 -13.5879985 153.13733383 -17 152 C-18.66362417 151.65179959 -20.32995171 151.31595508 -22 151 C-22 150.67 -22 150.34 -22 150 C-21.14019531 149.84144531 -20.28039062 149.68289062 -19.39453125 149.51953125 C2.5682277 145.18446105 21.2764921 134.95327526 34 116 C44.86090653 96.85165476 49.05233979 76.75589116 44.16796875 54.90234375 C40.96865459 43.36417204 35.14914635 32.75016799 27 24 C26.175 23.113125 25.35 22.22625 24.5 21.3125 C23.675 20.549375 22.85 19.78625 22 19 C21.44054687 18.45859375 20.88109375 17.9171875 20.3046875 17.359375 C13.23565072 10.77687112 4.91542361 6.56616944 -4 3 C-2.68 2.67 -1.36 2.34 0 2 C0 1.34 0 0.68 0 0 Z " fill="#EFB260" transform="translate(120,10)"/>
<path d="M0 0 C0.66 0 1.32 0 2 0 C1.74438677 2.3431213 1.40729228 4.67843403 1 7 C-1.49092811 8.24546405 -2.41080733 7.7767578 -5 7 C-4.34 7.66 -3.68 8.32 -3 9 C-2.01 9 -1.02 9 0 9 C0 12.3 0 15.6 0 19 C1.32 19 2.64 19 4 19 C4 19.66 4 20.32 4 21 C0.7 20.34 -2.6 19.68 -6 19 C-6 19.99 -6 20.98 -6 22 C-4.14375 22.1546875 -4.14375 22.1546875 -2.25 22.3125 C1.2792866 22.73801682 3.37160966 23.48112592 6 26 C5.071875 26.12375 5.071875 26.12375 4.125 26.25 C1.85973865 26.79253008 1.85973865 26.79253008 0.9375 28.8125 C0.628125 29.534375 0.31875 30.25625 0 31 C-1.4375 33.25 -1.4375 33.25 -3 35 C-3.99 35 -4.98 35 -6 35 C-5.67 36.65 -5.34 38.3 -5 40 C-7.97 39.67 -10.94 39.34 -14 39 C-14 38.34 -14 37.68 -14 37 C-16.475 37.495 -16.475 37.495 -19 38 C-19 37.01 -19 36.02 -19 35 C-19.66 35 -20.32 35 -21 35 C-21 35.99 -21 36.98 -21 38 C-22.32 38 -23.64 38 -25 38 C-24.67 36.68 -24.34 35.36 -24 34 C-24.99 34 -25.98 34 -27 34 C-27.625 32.125 -27.625 32.125 -28 30 C-27.34 29.34 -26.68 28.68 -26 28 C-22.375 28.375 -22.375 28.375 -19 29 C-19 28.34 -19 27.68 -19 27 C-20.32 27 -21.64 27 -23 27 C-22.54091237 21.67458345 -21.98276719 17.58067819 -19 13 C-16.4375 11.3125 -16.4375 11.3125 -14 10 C-13.34 9.01 -12.68 8.02 -12 7 C-11.34 7 -10.68 7 -10 7 C-10 8.65 -10 10.3 -10 12 C-9.34 12 -8.68 12 -8 12 C-7.855625 11.2575 -7.71125 10.515 -7.5625 9.75 C-7.09812508 7.47972261 -6.58136431 5.24240521 -6 3 C-4.68 3.33 -3.36 3.66 -2 4 C-1.34 2.68 -0.68 1.36 0 0 Z " fill="#FEF4EC" transform="translate(114,39)"/>
<path d="M0 0 C0.66 0 1.32 0 2 0 C1.67 1.98 1.34 3.96 1 6 C2.32 6 3.64 6 5 6 C5 7.32 5 8.64 5 10 C3.35 9.34 1.7 8.68 0 8 C-0.76173392 12.3164922 -1.16063604 15.74433453 0 20 C-1.98 20 -3.96 20 -6 20 C-6.144375 20.5775 -6.28875 21.155 -6.4375 21.75 C-6.95833333 23.83333333 -7.47916667 25.91666667 -8 28 C-8.99 28 -9.98 28 -11 28 C-11.33 26.68 -11.66 25.36 -12 24 C-12.66 26.31 -13.32 28.62 -14 31 C-14.66 31 -15.32 31 -16 31 C-16.33 30.01 -16.66 29.02 -17 28 C-16.34 28 -15.68 28 -15 28 C-15.165 27.401875 -15.33 26.80375 -15.5 26.1875 C-16 24 -16 24 -16 21 C-16.33 22.32 -16.66 23.64 -17 25 C-17.99 24.67 -18.98 24.34 -20 24 C-20 22.68 -20 21.36 -20 20 C-21.32 19.67 -22.64 19.34 -24 19 C-24 16 -24 16 -22 14 C-21.54188325 12.02764667 -21.54188325 12.02764667 -21.375 9.875 C-21.25125 8.59625 -21.1275 7.3175 -21 6 C-14.25 4.875 -14.25 4.875 -12 6 C-12 5.34 -12 4.68 -12 4 C-9.03 3.34 -6.06 2.68 -3 2 C-3 2.66 -3 3.32 -3 4 C-2.34 4 -1.68 4 -1 4 C-0.67 2.68 -0.34 1.36 0 0 Z " fill="#F3D6C7" transform="translate(61,86)"/>
<path d="M0 0 C2.92879371 0.62759865 5.36095629 1.58622659 8 3 C8 3.99 8 4.98 8 6 C7.34 6 6.68 6 6 6 C6 6.66 6 7.32 6 8 C7.093125 8.020625 8.18625 8.04125 9.3125 8.0625 C10.529375 8.371875 11.74625 8.68125 13 9 C14.75 12.5 14.75 12.5 16 16 C16.99 16.33 17.98 16.66 19 17 C19 18.32 19 19.64 19 21 C19.99 21.33 20.98 21.66 22 22 C21.67 24.64 21.34 27.28 21 30 C19.68 30 18.36 30 17 30 C17 30.66 17 31.32 17 32 C17.66 32.33 18.32 32.66 19 33 C17.0625 32.6875 17.0625 32.6875 15 32 C14.67 31.01 14.34 30.02 14 29 C14.66 29 15.32 29 16 29 C16 28.01 16 27.02 16 26 C15.01 26 14.02 26 13 26 C12.67 26.66 12.34 27.32 12 28 C11.67 27.01 11.34 26.02 11 25 C10.32195312 24.96261719 9.64390625 24.92523438 8.9453125 24.88671875 C2.26933186 24.41514671 -3.67708447 23.18078865 -10 21 C-10 20.01 -10 19.02 -10 18 C-5.05 18.99 -5.05 18.99 0 20 C0 19.34 0 18.68 0 18 C-1.32 18 -2.64 18 -4 18 C-4 16.02 -4 14.04 -4 12 C-2.68 11.34 -1.36 10.68 0 10 C-0.33 11.98 -0.66 13.96 -1 16 C-0.01 16 0.98 16 2 16 C1.979375 15.05125 1.95875 14.1025 1.9375 13.125 C2 10 2 10 3 8 C1.68 8 0.36 8 -1 8 C-0.67 7.01 -0.34 6.02 0 5 C0.66 5 1.32 5 2 5 C2 5.66 2 6.32 2 7 C2.66 7 3.32 7 4 7 C4 6.01 4 5.02 4 4 C2.68 4 1.36 4 0 4 C0 2.68 0 1.36 0 0 Z " fill="#EBC6B2" transform="translate(118,40)"/>
<path d="M0 0 C1.94921875 1.5390625 1.94921875 1.5390625 3.6875 3.625 C4.26886719 4.29789062 4.85023437 4.97078125 5.44921875 5.6640625 C7.22631491 8.34089752 8.10602375 10.92613092 9 14 C-0.48769478 18.72854466 -10.17445439 23.35300692 -21 23 C-19.57501234 20.62502057 -18.14919277 18.25060734 -16.71875 15.87890625 C-15.59757394 14.00093635 -14.4925476 12.11320205 -13.40625 10.21484375 C-12.9009375 9.33957031 -12.395625 8.46429688 -11.875 7.5625 C-11.41867188 6.75941406 -10.96234375 5.95632812 -10.4921875 5.12890625 C-7.65511825 1.08125509 -5.04399716 -0.84199008 0 0 Z " fill="#FEF9F6" transform="translate(61,66)"/>
<path d="M0 0 C8.45783359 3.53691223 11.99743485 12.39848249 15.4375 20.4375 C15.4375 21.0975 15.4375 21.7575 15.4375 22.4375 C5.58632448 23.35388842 -4.07865226 19.09529876 -12.5625 14.4375 C-11.06599175 7.78635224 -7.14274628 0.87717937 0 0 Z " fill="#FEFAF1" transform="translate(123.5625,65.5625)"/>
<path d="M0 0 C0.80767822 0.00902344 1.61535645 0.01804687 2.44750977 0.02734375 C3.06166748 0.03894531 3.6758252 0.05054687 4.30859375 0.0625 C5.48031131 3.35239086 6.64510463 6.64469102 7.80859375 9.9375 C8.14246094 10.87464844 8.47632812 11.81179687 8.8203125 12.77734375 C9.13613281 13.67324219 9.45195313 14.56914063 9.77734375 15.4921875 C10.07060547 16.31960449 10.36386719 17.14702148 10.66601562 17.99951172 C11.30859375 20.0625 11.30859375 20.0625 11.30859375 22.0625 C8.18359375 22.875 8.18359375 22.875 4.30859375 23.0625 C-3.03924488 18.71377918 -7.55886812 10.16614491 -9.69140625 2.0625 C-6.35368815 0.33980679 -3.69166721 -0.05355093 0 0 Z " fill="#FEF7F2" transform="translate(83.69140625,78.9375)"/>
<path d="M0 0 C0.66 0.33 1.32 0.66 2 1 C2.33 1.99 2.66 2.98 3 4 C3.66 4 4.32 4 5 4 C5 5.65 5 7.3 5 9 C5.66 9.33 6.32 9.66 7 10 C7 8.35 7 6.7 7 5 C7.99 5.33 8.98 5.66 10 6 C9.67 7.65 9.34 9.3 9 11 C10.32 11.33 11.64 11.66 13 12 C14.44060393 17.31788651 13.31975673 20.79795229 11.0625 25.625 C10.74474609 26.32359131 10.42699219 27.02218262 10.09960938 27.74194336 C5.73070984 37.05992036 0.22193302 46.56815873 -8 53 C-9.485 53.495 -9.485 53.495 -11 54 C-10.39655936 50.42461423 -10.07453909 50.05901011 -7 47.625 C1.89888567 40.37405612 7.16245269 28.52914992 11 18 C10.10861328 18.05220703 10.10861328 18.05220703 9.19921875 18.10546875 C2.3367705 18.32959225 -3.48050228 17.08227304 -10 15 C-9.67 14.01 -9.34 13.02 -9 12 C-4.71 12.66 -0.42 13.32 4 14 C3.154375 12.618125 2.30875 11.23625 1.4375 9.8125 C-0.35088812 6.8900121 -1.0799543 5.64412618 -0.65234375 2.19921875 C-0.43707031 1.47347656 -0.22179687 0.74773437 0 0 Z " fill="#E6B678" transform="translate(135,74)"/>
<path d="M0 0 C0.66 0 1.32 0 2 0 C0.35474079 11.43455154 -9.30687263 20.55640318 -18.0078125 27.34765625 C-28.10475456 34.63448552 -39.52267209 41.06536205 -52 43 C-52.99 42.67 -53.98 42.34 -55 42 C-56.66362417 41.65179959 -58.32995171 41.31595508 -60 41 C-60 40.67 -60 40.34 -60 40 C-59.14019531 39.84144531 -58.28039062 39.68289062 -57.39453125 39.51953125 C-34.82015076 35.0637375 -17.6698354 24.70109426 -4 6 C-3.19759043 4.79877377 -2.4037051 3.59172672 -1.625 2.375 C-1.08875 1.59125 -0.5525 0.8075 0 0 Z " fill="#EBA95E" transform="translate(158,120)"/>
<path d="M0 0 C2.31 0.33 4.62 0.66 7 1 C7 2.65 7 4.3 7 6 C7.99 6.33 8.98 6.66 10 7 C10 8.98 10 10.96 10 13 C10.8971875 13.1546875 10.8971875 13.1546875 11.8125 13.3125 C14.39297498 14.12350642 15.35830692 14.86198111 17 17 C17.07421875 19.26171875 17.07421875 19.26171875 16.6875 21.6875 C16.56761719 22.49574219 16.44773437 23.30398437 16.32421875 24.13671875 C16.21722656 24.75160156 16.11023438 25.36648437 16 26 C13.20215289 26 11.0209322 25.62804225 8.3125 25 C7.50425781 24.814375 6.69601563 24.62875 5.86328125 24.4375 C5.24839844 24.293125 4.63351563 24.14875 4 24 C4 23.34 4 22.68 4 22 C2.68 22 1.36 22 0 22 C0 20.02 0 18.04 0 16 C-1.32 16.33 -2.64 16.66 -4 17 C-4 16.01 -4 15.02 -4 14 C-1.03 14.495 -1.03 14.495 2 15 C2 13.35 2 11.7 2 10 C4.97 10.495 4.97 10.495 8 11 C8 10.34 8 9.68 8 9 C6.68 8.67 5.36 8.34 4 8 C4.33 6.35 4.66 4.7 5 3 C2.03 2.505 2.03 2.505 -1 2 C-0.67 1.34 -0.34 0.68 0 0 Z " fill="#FEF3E8" transform="translate(66,84)"/>
<path d="M0 0 C2.64 0.33 5.28 0.66 8 1 C7.9175 2.258125 7.835 3.51625 7.75 4.8125 C7.68311857 6.98797348 7.68311857 6.98797348 8 9 C9.84188612 11.05270463 9.84188612 11.05270463 12 12 C11.67 12.66 11.34 13.32 11 14 C9.68 13.34 8.36 12.68 7 12 C6.67 12.99 6.34 13.98 6 15 C5.34 15 4.68 15 4 15 C4.33 15.66 4.66 16.32 5 17 C5.99 17 6.98 17 8 17 C8 17.99 8 18.98 8 20 C6.02 19.67 4.04 19.34 2 19 C2 19.66 2 20.32 2 21 C0.35 21.33 -1.3 21.66 -3 22 C-3 21.01 -3 20.02 -3 19 C-3.66 19 -4.32 19 -5 19 C-5 19.99 -5 20.98 -5 22 C-6.32 22 -7.64 22 -9 22 C-8.67 20.68 -8.34 19.36 -8 18 C-8.99 18 -9.98 18 -11 18 C-11.625 16.125 -11.625 16.125 -12 14 C-11.34 13.34 -10.68 12.68 -10 12 C-6.375 12.375 -6.375 12.375 -3 13 C-3 12.34 -3 11.68 -3 11 C-4.32 11 -5.64 11 -7 11 C-6.67 8.36 -6.34 5.72 -6 3 C-5.01 3 -4.02 3 -3 3 C-3 3.99 -3 4.98 -3 6 C-3.66 6 -4.32 6 -5 6 C-4.20700294 8.17038477 -4.20700294 8.17038477 -2.15234375 8.6328125 C-1.42144531 8.79523437 -0.69054687 8.95765625 0.0625 9.125 C1.16271484 9.37636719 1.16271484 9.37636719 2.28515625 9.6328125 C2.85105469 9.75398438 3.41695312 9.87515625 4 10 C4 9.195625 4 8.39125 4 7.5625 C4 6.375 4 5.1875 4 4 C3.34 4 2.68 4 2 4 C2 4.99 2 5.98 2 7 C1.01 7 0.02 7 -1 7 C-0.67 4.69 -0.34 2.38 0 0 Z " fill="#FEF3E5" transform="translate(98,55)"/>
<path d="M0 0 C1.12728516 0.00394775 2.25457031 0.00789551 3.41601562 0.01196289 C12.8963124 0.17408302 22.63273522 1.12886761 31.25 5.4375 C31.25 6.0975 31.25 6.7575 31.25 7.4375 C26.95386069 7.717683 23.81967907 7.390455 19.75390625 5.953125 C13.82718876 4.12045008 8.23243739 3.94078755 2.0625 4 C0.96478271 4.00684814 -0.13293457 4.01369629 -1.26391602 4.02075195 C-13.1669425 4.25486673 -23.40643031 6.65179625 -33.89453125 12.484375 C-35.75 13.4375 -35.75 13.4375 -37.75 13.4375 C-37.75 12.7775 -37.75 12.1175 -37.75 11.4375 C-38.41 11.1075 -39.07 10.7775 -39.75 10.4375 C-37.50633378 9.31873201 -35.2562318 8.217931 -33 7.125 C-32.38511719 6.81626953 -31.77023438 6.50753906 -31.13671875 6.18945312 C-21.11524446 1.38117001 -11.03484508 -0.10000122 0 0 Z " fill="#E2804F" transform="translate(88.75,4.5625)"/>
<path d="M0 0 C2.31 0 4.62 0 7 0 C7.22036864 3.85645121 6.60355101 6.49223216 5 10 C6.32 10 7.64 10 9 10 C9 10.66 9 11.32 9 12 C7.35 12 5.7 12 4 12 C4.33 13.32 4.66 14.64 5 16 C4.01 16.33 3.02 16.66 2 17 C1.06576355 13.98968256 0.95550089 13.13349732 2 10 C-0.31 9.67 -2.62 9.34 -5 9 C-5 9.99 -5 10.98 -5 12 C-3.68 12 -2.36 12 -1 12 C-1 12.66 -1 13.32 -1 14 C-2.98 14 -4.96 14 -7 14 C-7.33 14.66 -7.66 15.32 -8 16 C-9.32 15.67 -10.64 15.34 -12 15 C-12 12 -12 12 -10 10 C-9.54188325 8.02764667 -9.54188325 8.02764667 -9.375 5.875 C-9.25125 4.59625 -9.1275 3.3175 -9 2 C-2.25 0.875 -2.25 0.875 0 2 C0 1.34 0 0.68 0 0 Z " fill="#FAEBDF" transform="translate(49,90)"/>
<path d="M0 0 C0.99 0.33 1.98 0.66 3 1 C2.39865234 1.57041016 2.39865234 1.57041016 1.78515625 2.15234375 C-9.75475462 14.11093619 -15.02136494 30.51980673 -20 46 C-14.39 46 -8.78 46 -3 46 C-2.67 46.66 -2.34 47.32 -2 48 C-3.32 48 -4.64 48 -6 48 C-6 48.66 -6 49.32 -6 50 C-9.63 50 -13.26 50 -17 50 C-17 50.66 -17 51.32 -17 52 C-17.66 52 -18.32 52 -19 52 C-19 51.34 -19 50.68 -19 50 C-20.32 50 -21.64 50 -23 50 C-22.48987077 43.43372124 -21.22501642 37.8885854 -18.875 31.75 C-18.56296631 30.92516113 -18.25093262 30.10032227 -17.92944336 29.25048828 C-13.61720919 18.12724102 -8.49841881 8.54256644 0 0 Z " fill="#D56658" transform="translate(55,42)"/>
<path d="M0 0 C6.09781001 -0.22084624 11.21642935 -0.01167675 17 2 C15.68925635 6.46182436 13.92933989 9.99618757 11.375 13.875 C10.74335937 14.84179688 10.11171875 15.80859375 9.4609375 16.8046875 C8.73777344 17.89136719 8.73777344 17.89136719 8 19 C4.62461996 17.31230998 4.09849494 13.44906374 2.875 10.0625 C2.59785156 9.32064453 2.32070312 8.57878906 2.03515625 7.81445312 C0 2.28544489 0 2.28544489 0 0 Z " fill="#FEF7EF" transform="translate(90,79)"/>
<path d="M0 0 C1.9375 0.25 1.9375 0.25 4 1 C4.66 1.99 5.32 2.98 6 4 C6.66 4.33 7.32 4.66 8 5 C8 6.32 8 7.64 8 9 C8.99 9.33 9.98 9.66 11 10 C10.67 12.64 10.34 15.28 10 18 C8.68 18 7.36 18 6 18 C6 18.66 6 19.32 6 20 C6.66 20.33 7.32 20.66 8 21 C6.0625 20.6875 6.0625 20.6875 4 20 C3.67 19.01 3.34 18.02 3 17 C3.66 17 4.32 17 5 17 C5 16.01 5 15.02 5 14 C4.01 14 3.02 14 2 14 C1.67 14.66 1.34 15.32 1 16 C0.67 15.01 0.34 14.02 0 13 C-1.65 12.67 -3.3 12.34 -5 12 C-4.34 10.02 -3.68 8.04 -3 6 C-4.32 6.33 -5.64 6.66 -7 7 C-7.33 5.68 -7.66 4.36 -8 3 C-4.37 3.66 -0.74 4.32 3 5 C3 4.01 3 3.02 3 2 C1.68 1.67 0.36 1.34 -1 1 C-0.67 0.67 -0.34 0.34 0 0 Z " fill="#FEF3E9" transform="translate(129,52)"/>
<path d="M0 0 C2.5 1.5625 2.5 1.5625 4 3 C3.071875 3.12375 3.071875 3.12375 2.125 3.25 C-0.14026135 3.79253008 -0.14026135 3.79253008 -1.0625 5.8125 C-1.371875 6.534375 -1.68125 7.25625 -2 8 C-3.4375 10.25 -3.4375 10.25 -5 12 C-5.99 12 -6.98 12 -8 12 C-7.67 13.65 -7.34 15.3 -7 17 C-9.97 16.67 -12.94 16.34 -16 16 C-16 14.68 -16 13.36 -16 12 C-13.03 12.495 -13.03 12.495 -10 13 C-10 12.01 -10 11.02 -10 10 C-11.32 10.33 -12.64 10.66 -14 11 C-14.33 9.68 -14.66 8.36 -15 7 C-12.64561267 5.57055055 -11.51967567 4.91338739 -8.75 5.375 C-7.88375 5.684375 -7.88375 5.684375 -7 6 C-7.66 5.38125 -8.32 4.7625 -9 4.125 C-11 2 -11 2 -11 0 C-7.16608823 -1.27797059 -3.87006105 -0.91106065 0 0 Z " fill="#F2D7BE" transform="translate(116,62)"/>
<path d="M0 0 C4.18029504 0.98359883 8.14364289 2.38030061 12.1875 3.8125 C17.09005816 5.34454943 21.90553678 5.87379708 27.0234375 6.06640625 C28.08691406 6.10830078 29.15039062 6.15019531 30.24609375 6.19335938 C31.34050781 6.23267578 32.43492188 6.27199219 33.5625 6.3125 C34.68011719 6.35568359 35.79773438 6.39886719 36.94921875 6.44335938 C39.69520199 6.54897411 42.44126881 6.6510797 45.1875 6.75 C44.1875 8.75 44.1875 8.75 42.3828125 9.36450195 C25.57760451 12.31550545 9.4835828 8.39501958 -5.8125 1.75 C-2.8125 -0.25 -2.8125 -0.25 0 0 Z " fill="#E37E55" transform="translate(58.8125,154.25)"/>
<path d="M0 0 C1 3 1 3 1 5 C1.99 5.33 2.98 5.66 4 6 C4 6.99 4 7.98 4 9 C0.64566891 8.05066101 -2.69246505 7.10251165 -6 6 C-6.33 8.64 -6.66 11.28 -7 14 C-5.02 14 -3.04 14 -1 14 C-1.99 13.67 -2.98 13.34 -4 13 C-4.33 12.01 -4.66 11.02 -5 10 C-2.36 10 0.28 10 3 10 C3 10.66 3 11.32 3 12 C4.65 12 6.3 12 8 12 C8 12.99 8 13.98 8 15 C5.03 14.505 5.03 14.505 2 14 C2 15.32 2 16.64 2 18 C1.34 18 0.68 18 0 18 C0 19.65 0 21.3 0 23 C-0.66 23.33 -1.32 23.66 -2 24 C-3.125 20.25 -3.125 20.25 -2 18 C-3.32 18 -4.64 18 -6 18 C-6 17.01 -6 16.02 -6 15 C-6.66 15 -7.32 15 -8 15 C-9.23076923 8.6 -9.23076923 8.6 -8.0625 5.5625 C-7.711875 5.046875 -7.36125 4.53125 -7 4 C-5.02 4 -3.04 4 -1 4 C-0.67 2.68 -0.34 1.36 0 0 Z " fill="#FBE5D9" transform="translate(62,102)"/>
<path d="M0 0 C11.12713287 5.20743487 22.3225924 11.02677598 30 21 C30 21.99 30 22.98 30 24 C26.48155798 23.609062 24.96346341 22.08569616 22.59375 19.5859375 C15.93715509 12.96197296 8.34921685 8.18794583 0 4 C-0.76570313 3.61585937 -1.53140625 3.23171875 -2.3203125 2.8359375 C-2.87460938 2.56007813 -3.42890625 2.28421875 -4 2 C-2.68 2 -1.36 2 0 2 C0 1.34 0 0.68 0 0 Z " fill="#EAA360" transform="translate(120,10)"/>
<path d="M0 0 C2.93454393 1.46727196 3.10194373 3.46913145 4.25 6.5 C6.94509102 13.18191205 9.86582739 19.9105516 16 24 C19.5382677 24.22584687 22.60907078 24.04336284 26 23 C25 26 25 26 23 27 C21.08203125 27.30859375 21.08203125 27.30859375 18.8125 27.4375 C18.07644531 27.49808594 17.34039062 27.55867188 16.58203125 27.62109375 C11.70850248 26.44879258 8.34707144 23.00454547 5.59741211 18.9128418 C4.34004822 16.68181304 3.18424336 14.42701246 2.0625 12.125 C1.66482422 11.34125 1.26714844 10.5575 0.85742188 9.75 C-0.10904648 7.84035169 -1.05655192 5.92112557 -2 4 C-2.66 4 -3.32 4 -4 4 C-4 3.34 -4 2.68 -4 2 C-2.68 2 -1.36 2 0 2 C0 1.34 0 0.68 0 0 Z " fill="#E5965F" transform="translate(98,103)"/>
<path d="M0 0 C0.33 0.66 0.66 1.32 1 2 C1.99 2 2.98 2 4 2 C3.67 3.65 3.34 5.3 3 7 C4.32 7.33 5.64 7.66 7 8 C7 8.66 7 9.32 7 10 C4.03 9.505 4.03 9.505 1 9 C1 10.65 1 12.3 1 14 C-1.97 13.505 -1.97 13.505 -5 13 C-5 13.99 -5 14.98 -5 16 C-3.68 15.67 -2.36 15.34 -1 15 C-1 17.64 -1 20.28 -1 23 C-2.32 22.67 -3.64 22.34 -5 22 C-5.185625 21.13375 -5.185625 21.13375 -5.375 20.25 C-5.89798769 17.96690581 -5.89798769 17.96690581 -7.1875 16.0625 C-8 14 -8 14 -7.125 11.25 C-6.75375 10.5075 -6.3825 9.765 -6 9 C-3.525 9.99 -3.525 9.99 -1 11 C-1 9.68 -1 8.36 -1 7 C-2.32 7 -3.64 7 -5 7 C-4.75 4.625 -4.75 4.625 -4 2 C-1.9375 0.6875 -1.9375 0.6875 0 0 Z " fill="#F5DCCE" transform="translate(67,85)"/>
<path d="M0 0 C8.19742179 3.66267782 12.23225374 12.72535115 15.4375 20.6875 C15.9701939 22.12064717 16.4958887 23.55655087 17 25 C18.65 24.67 20.3 24.34 22 24 C22 24.66 22 25.32 22 26 C21.34 26 20.68 26 20 26 C20 27.65 20 29.3 20 31 C19.67 30.34 19.34 29.68 19 29 C18.34 29 17.68 29 17 29 C16.67 29.66 16.34 30.32 16 31 C15.64808594 30.04480469 15.29617187 29.08960937 14.93359375 28.10546875 C9.86911771 13.84389349 9.86911771 13.84389349 0 3 C-2.75387627 2.97522641 -2.75387627 2.97522641 -5.6875 3.375 C-6.68136719 3.48585937 -7.67523438 3.59671875 -8.69921875 3.7109375 C-9.45847656 3.80632813 -10.21773437 3.90171875 -11 4 C-7.43363078 0.27152309 -5.24493402 -0.50432058 0 0 Z " fill="#D97F63" transform="translate(67,38)"/>
<path d="M0 0 C0.66 0.33 1.32 0.66 2 1 C2.33 1.99 2.66 2.98 3 4 C3.66 4 4.32 4 5 4 C5 5.65 5 7.3 5 9 C5.66 9.33 6.32 9.66 7 10 C7 8.35 7 6.7 7 5 C7.99 5.33 8.98 5.66 10 6 C9.67 7.65 9.34 9.3 9 11 C10.32 11.33 11.64 11.66 13 12 C13 12.99 13 13.98 13 15 C9.62537285 14.45276317 7.91765 13.9451 5 12 C5.33 12.99 5.66 13.98 6 15 C2.90765472 15.89893758 0.09202643 16.16349234 -3.125 16.1875 C-4.42824219 16.20876953 -4.42824219 16.20876953 -5.7578125 16.23046875 C-8 16 -8 16 -10 14 C-9.67 13.34 -9.34 12.68 -9 12 C-4.71 12.66 -0.42 13.32 4 14 C3.154375 12.618125 2.30875 11.23625 1.4375 9.8125 C-0.35088812 6.8900121 -1.0799543 5.64412618 -0.65234375 2.19921875 C-0.43707031 1.47347656 -0.22179687 0.74773437 0 0 Z " fill="#ECB26F" transform="translate(135,74)"/>
<path d="M0 0 C0 0.99 0 1.98 0 3 C-2.08984375 4.7265625 -2.08984375 4.7265625 -4.9375 6.625 C-10.59197453 10.57218803 -15.27205382 15.00610684 -20 20 C-20.99665741 21.00333145 -21.99530157 22.00472061 -23 23 C-23.8359375 20.87109375 -23.8359375 20.87109375 -24 18 C-22.26731546 15.72546888 -20.6936932 13.98353858 -18.625 12.0625 C-17.8043103 11.27407715 -17.8043103 11.27407715 -16.96704102 10.46972656 C-5.8401168 -0 -5.8401168 -0 0 0 Z " fill="#DD674F" transform="translate(51,16)"/>
<path d="M0 0 C8.11722488 -0.62440191 8.11722488 -0.62440191 11.5625 1.8125 C13 4 13 4 13 7 C12.34 7 11.68 7 11 7 C10.67 8.32 10.34 9.64 10 11 C9.01 11 8.02 11 7 11 C7 10.34 7 9.68 7 9 C4.36 8.67 1.72 8.34 -1 8 C-1.33 7.01 -1.66 6.02 -2 5 C-1.01 4.67 -0.02 4.34 1 4 C0.67 2.68 0.34 1.36 0 0 Z " fill="#FEF4E5" transform="translate(70,97)"/>
<path d="M0 0 C0.33 0.66 0.66 1.32 1 2 C2.32 1.67 3.64 1.34 5 1 C4.814375 1.61875 4.62875 2.2375 4.4375 2.875 C3.76313824 5.04160178 3.76313824 5.04160178 5 7 C5.99 7.66 6.98 8.32 8 9 C7.34 9 6.68 9 6 9 C5.67 9.99 5.34 10.98 5 12 C4.5875 11.443125 4.175 10.88625 3.75 10.3125 C3.1725 9.549375 2.595 8.78625 2 8 C1.4225 7.113125 0.845 6.22625 0.25 5.3125 C-1.91403112 2.7568455 -1.91403112 2.7568455 -5.375 1.75 C-9.36891468 2.02544239 -9.73842186 2.24478422 -12.25 5.0625 C-14.59369321 8.18324658 -16.42831591 11.4200529 -18 15 C-18.99 14.67 -19.98 14.34 -21 14 C-21 12.35 -21 10.7 -21 9 C-20.4225 8.79375 -19.845 8.5875 -19.25 8.375 C-16.74085526 7.06758026 -16.74085526 7.06758026 -15.125 4.0625 C-10.85571712 -2.09029004 -6.7957132 -2.79823485 0 0 Z " fill="#E49E67" transform="translate(129,65)"/>
<path d="M0 0 C0.66 0.33 1.32 0.66 2 1 C1 4 1 4 -1.5546875 5.5 C-20.21278721 13.92907093 -20.21278721 13.92907093 -26 12 C-27.66362417 11.65179959 -29.32995171 11.31595508 -31 11 C-31 10.67 -31 10.34 -31 10 C-30.14019531 9.84144531 -29.28039062 9.68289062 -28.39453125 9.51953125 C-19.13379426 7.69162133 -10.11998888 5.31588248 -1.7578125 0.78515625 C-0.88769531 0.39650391 -0.88769531 0.39650391 0 0 Z " fill="#E8985C" transform="translate(129,150)"/>
<path d="M0 0 C0.33 0 0.66 0 1 0 C1.02736707 1.39572052 1.04655989 2.79160221 1.0625 4.1875 C1.07410156 4.96480469 1.08570313 5.74210937 1.09765625 6.54296875 C1 9 1 9 0.51367188 11.3359375 C0.00899239 13.95336264 -0.20213795 16.42121236 -0.31640625 19.08203125 C-0.35830078 20.01337891 -0.40019531 20.94472656 -0.44335938 21.90429688 C-0.50233398 23.34385742 -0.50233398 23.34385742 -0.5625 24.8125 C-0.60568359 25.79154297 -0.64886719 26.77058594 -0.69335938 27.77929688 C-0.7990226 30.18607027 -0.90112327 32.59293983 -1 35 C-1.66 35 -2.32 35 -3 35 C-3.77779045 32.23988661 -4.12812002 29.78272762 -4.1328125 26.91796875 C-4.13410156 26.15033203 -4.13539062 25.38269531 -4.13671875 24.59179688 C-4.13285156 23.79837891 -4.12898437 23.00496094 -4.125 22.1875 C-4.12886719 21.40568359 -4.13273438 20.62386719 -4.13671875 19.81835938 C-4.12884953 15.10863263 -3.78139148 10.64493824 -3 6 C-2.34 6 -1.68 6 -1 6 C-0.67 4.02 -0.34 2.04 0 0 Z " fill="#DC4F45" transform="translate(14,62)"/>
<path d="M0 0 C0.66 0 1.32 0 2 0 C1.74438677 2.3431213 1.40729228 4.67843403 1 7 C-1.49092811 8.24546405 -2.41080733 7.7767578 -5 7 C-4.34 7.66 -3.68 8.32 -3 9 C-2.01 9 -1.02 9 0 9 C0 10.32 0 11.64 0 13 C-0.66 13 -1.32 13 -2 13 C-2 14.32 -2 15.64 -2 17 C-4.31 16.67 -6.62 16.34 -9 16 C-8.52060632 11.28596212 -8.03165952 7.33420699 -6 3 C-4.68 3.33 -3.36 3.66 -2 4 C-1.34 2.68 -0.68 1.36 0 0 Z " fill="#E8BAA2" transform="translate(114,39)"/>
<path d="M0 0 C1.65 0 3.3 0 5 0 C4.67 2.64 4.34 5.28 4 8 C3.01 8.33 2.02 8.66 1 9 C0.34 8.01 -0.32 7.02 -1 6 C-1.99 6.495 -1.99 6.495 -3 7 C-5.125 6.5625 -5.125 6.5625 -7 6 C-7 7.32 -7 8.64 -7 10 C-7.99 10 -8.98 10 -10 10 C-9.67 7.36 -9.34 4.72 -9 2 C-2.25 0.875 -2.25 0.875 0 2 C0 1.34 0 0.68 0 0 Z " fill="#F2CEBB" transform="translate(49,90)"/>
<path d="M0 0 C0.99 0.33 1.98 0.66 3 1 C3 2.32 3 3.64 3 5 C3.99 5.33 4.98 5.66 6 6 C5.67 8.64 5.34 11.28 5 14 C3.68 14 2.36 14 1 14 C1 14.66 1 15.32 1 16 C1.66 16.33 2.32 16.66 3 17 C1.0625 16.6875 1.0625 16.6875 -1 16 C-1.33 15.01 -1.66 14.02 -2 13 C-1.34 13 -0.68 13 0 13 C0 11.68 0 10.36 0 9 C-0.66 8.67 -1.32 8.34 -2 8 C-2 7.34 -2 6.68 -2 6 C-3.32 6 -4.64 6 -6 6 C-6 5.34 -6 4.68 -6 4 C-4.02 4 -2.04 4 0 4 C0 2.68 0 1.36 0 0 Z " fill="#FDF1DD" transform="translate(134,56)"/>
<path d="M0 0 C0.66 0 1.32 0 2 0 C2.33 1.98 2.66 3.96 3 6 C3.99 6 4.98 6 6 6 C6.0928125 7.5778125 6.0928125 7.5778125 6.1875 9.1875 C6.81396809 14.55584961 8.96040603 19.29245856 11.0390625 24.2421875 C11.51472656 25.60730469 11.51472656 25.60730469 12 27 C11.67 27.66 11.34 28.32 11 29 C10.34 29 9.68 29 9 29 C8.60167969 27.85402344 8.20335938 26.70804688 7.79296875 25.52734375 C7.25794062 23.99735102 6.72277715 22.46740562 6.1875 20.9375 C5.92646484 20.18533203 5.66542969 19.43316406 5.39648438 18.65820312 C4.14485287 15.0887355 2.84886147 11.58260852 1.3125 8.125 C0.03961563 5.09432294 -0.29410099 3.23511086 0 0 Z " fill="#E38255" transform="translate(84,67)"/>
<path d="M0 0 C0.66 0 1.32 0 2 0 C2 1.32 2 2.64 2 4 C3.32 4 4.64 4 6 4 C6 4.99 6 5.98 6 7 C5.34 7 4.68 7 4 7 C4 6.34 4 5.68 4 5 C3.01 5.99 2.02 6.98 1 8 C2.32 8 3.64 8 5 8 C4.67 10.64 4.34 13.28 4 16 C3.01 16 2.02 16 1 16 C1 15.34 1 14.68 1 14 C0.34 13.67 -0.32 13.34 -1 13 C-0.01 13 0.98 13 2 13 C2 12.01 2 11.02 2 10 C0.02 10.99 0.02 10.99 -2 12 C-2 10.68 -2 9.36 -2 8 C-3.32 8.33 -4.64 8.66 -6 9 C-6.33 8.01 -6.66 7.02 -7 6 C-5.35 6 -3.7 6 -2 6 C-2 4.68 -2 3.36 -2 2 C-1.34 2 -0.68 2 0 2 C0 1.34 0 0.68 0 0 Z " fill="#FEF5ED" transform="translate(116,40)"/>
<path d="M0 0 C0 0.66 0 1.32 0 2 C-4.24043375 2.27655003 -7.36251865 1.97786157 -11.375 0.5625 C-18.68294536 -1.84322114 -26.37410812 -1.74344447 -34 -2 C-34 -2.33 -34 -2.66 -34 -3 C-21.99998315 -3.96774329 -11.32065333 -4.82175975 0 0 Z " fill="#E78C56" transform="translate(120,10)"/>
<path d="M0 0 C0.66 0.33 1.32 0.66 2 1 C-5.71708306 7.34834366 -16.37944867 6.31855198 -25.88916016 6.26074219 C-28.02404252 6.24987765 -30.15810953 6.26076771 -32.29296875 6.2734375 C-33.65364769 6.27211824 -35.01432612 6.2695607 -36.375 6.265625 C-37.59960938 6.26336914 -38.82421875 6.26111328 -40.0859375 6.25878906 C-43 6 -43 6 -45 4 C-44.26064209 4.01571045 -43.52128418 4.0314209 -42.75952148 4.04760742 C-21.07093765 4.50800162 -21.07093765 4.50800162 0 0 Z " fill="#FEF1E3" transform="translate(117,159)"/>
<path d="M0 0 C1.65 0 3.3 0 5 0 C5 0.66 5 1.32 5 2 C5.66 2.33 6.32 2.66 7 3 C6.67 5.64 6.34 8.28 6 11 C5.01 11.33 4.02 11.66 3 12 C2.67 12.99 2.34 13.98 2 15 C0.7922442 11.37673261 1.45688872 10.35853631 3 7 C1.35 7 -0.3 7 -2 7 C-1.34 4.69 -0.68 2.38 0 0 Z " fill="#FEF0DA" transform="translate(83,104)"/>
<path d="M0 0 C3.375 0.25 3.375 0.25 7 1 C8.4375 3.0625 8.4375 3.0625 9 5 C7.68 5 6.36 5 5 5 C5.99 5.33 6.98 5.66 8 6 C8 6.99 8 7.98 8 9 C5.03 8.67 2.06 8.34 -1 8 C-1.33 6.02 -1.66 4.04 -2 2 C-1.34 2 -0.68 2 0 2 C0 1.34 0 0.68 0 0 Z " fill="#FEEDDF" transform="translate(124,48)"/>
<path d="M0 0 C0.33 0.66 0.66 1.32 1 2 C1.7425 1.835 2.485 1.67 3.25 1.5 C8.50409401 0.79945413 13.70751749 0.92292501 19 1 C19.33 1.66 19.66 2.32 20 3 C18.68 3 17.36 3 16 3 C16 3.66 16 4.32 16 5 C12.37 5 8.74 5 5 5 C5 5.66 5 6.32 5 7 C4.34 7 3.68 7 3 7 C3 6.34 3 5.68 3 5 C1.68 5 0.36 5 -1 5 C-0.67 3.35 -0.34 1.7 0 0 Z " fill="#D95646" transform="translate(33,87)"/>
<path d="M0 0 C0.33 0.66 0.66 1.32 1 2 C2.65 2 4.3 2 6 2 C6 2.66 6 3.32 6 4 C6.99 4.33 7.98 4.66 9 5 C7.68 5.33 6.36 5.66 5 6 C5.33 7.65 5.66 9.3 6 11 C3.03 10.67 0.06 10.34 -3 10 C-3 8.68 -3 7.36 -3 6 C-0.03 6.495 -0.03 6.495 3 7 C3 6.01 3 5.02 3 4 C1.68 4.33 0.36 4.66 -1 5 C-1.33 3.68 -1.66 2.36 -2 1 C-1.34 0.67 -0.68 0.34 0 0 Z " fill="#FEF1DD" transform="translate(103,68)"/>
<path d="M0 0 C-0.99 0.33 -1.98 0.66 -3 1 C-2.67 1.66 -2.34 2.32 -2 3 C-2.88042969 3.33773438 -3.76085937 3.67546875 -4.66796875 4.0234375 C-6.41013672 4.69246094 -6.41013672 4.69246094 -8.1875 5.375 C-9.91033203 6.03628906 -9.91033203 6.03628906 -11.66796875 6.7109375 C-14.45335994 7.78852143 -17.22997721 8.8836443 -20 10 C-20 9.34 -20 8.68 -20 8 C-20.66 7.67 -21.32 7.34 -22 7 C-19.56343315 5.85214624 -17.12580719 4.70664598 -14.6875 3.5625 C-13.99720703 3.23701172 -13.30691406 2.91152344 -12.59570312 2.57617188 C-4.27009263 -1.32520116 -4.27009263 -1.32520116 0 0 Z " fill="#E17155" transform="translate(71,8)"/>
<path d="M0 0 C2.3431213 0.25561323 4.67843403 0.59270772 7 1 C7.33 1.66 7.66 2.32 8 3 C10.02463255 3.65213292 10.02463255 3.65213292 12 4 C11.67 5.32 11.34 6.64 11 8 C12.32 8.66 13.64 9.32 15 10 C14.67 10.66 14.34 11.32 14 12 C9.64477147 11.49357808 6.55760365 10.61588503 3 8 C3 7.34 3 6.68 3 6 C4.65 6.33 6.3 6.66 8 7 C5.31158141 4.74754119 3.35358125 3.11786042 0 2 C0 1.34 0 0.68 0 0 Z " fill="#E5BBA8" transform="translate(49,116)"/>
<path d="M0 0 C2.31 0.33 4.62 0.66 7 1 C6.67 3.64 6.34 6.28 6 9 C4.35 8.67 2.7 8.34 1 8 C0.67 9.32 0.34 10.64 0 12 C-0.99 11.67 -1.98 11.34 -3 11 C-2.67 9.02 -2.34 7.04 -2 5 C-0.02 5 1.96 5 4 5 C4 4.34 4 3.68 4 3 C2.68 3 1.36 3 0 3 C0 2.01 0 1.02 0 0 Z " fill="#E9C3AF" transform="translate(44,99)"/>
<path d="M0 0 C2.31 0.66 4.62 1.32 7 2 C7 2.99 7 3.98 7 5 C4.03 4.505 4.03 4.505 1 4 C1 4.99 1 5.98 1 7 C2.32 6.67 3.64 6.34 5 6 C5 8.64 5 11.28 5 14 C3.68 13.67 2.36 13.34 1 13 C0.814375 12.13375 0.814375 12.13375 0.625 11.25 C0.10201231 8.96690581 0.10201231 8.96690581 -1.1875 7.0625 C-2 5 -2 5 -1.125 2.25 C-0.75375 1.5075 -0.3825 0.765 0 0 Z " fill="#E5BAA5" transform="translate(61,94)"/>
<path d="M0 0 C2.97 0.99 5.94 1.98 9 3 C8.67 4.65 8.34 6.3 8 8 C7.67 7.34 7.34 6.68 7 6 C6.25234375 6.02320312 5.5046875 6.04640625 4.734375 6.0703125 C3.74953125 6.08835937 2.7646875 6.10640625 1.75 6.125 C0.77546875 6.14820312 -0.1990625 6.17140625 -1.203125 6.1953125 C-4.0196498 5.99862781 -5.60949036 5.44568916 -8 4 C-5.36 3.34 -2.72 2.68 0 2 C0 1.34 0 0.68 0 0 Z " fill="#EEB364" transform="translate(140,86)"/>
<path d="M0 0 C1.11826172 -0.00773438 2.23652344 -0.01546875 3.38867188 -0.0234375 C5.00032227 -0.01957031 5.00032227 -0.01957031 6.64453125 -0.015625 C8.0982312 -0.01224121 8.0982312 -0.01224121 9.58129883 -0.00878906 C12.25156229 0.25636122 13.89893239 0.8889561 16.1875 2.25 C15.37482666 2.24476318 14.56215332 2.23952637 13.72485352 2.23413086 C10.06657678 2.21343006 6.40831233 2.20036197 2.75 2.1875 C1.47060547 2.17912109 0.19121094 2.17074219 -1.12695312 2.16210938 C-2.34189453 2.15888672 -3.55683594 2.15566406 -4.80859375 2.15234375 C-5.93450928 2.14710693 -7.0604248 2.14187012 -8.22045898 2.13647461 C-10.74220871 1.95454552 -10.74220871 1.95454552 -11.8125 3.25 C-13.99542774 3.48481693 -16.18453174 3.66363323 -18.375 3.8125 C-19.57253906 3.89628906 -20.77007812 3.98007813 -22.00390625 4.06640625 C-22.93074219 4.12699219 -23.85757813 4.18757812 -24.8125 4.25 C-17.48626614 -0.63415591 -8.50818111 -0.05988163 0 0 Z " fill="#FCE4D1" transform="translate(90.8125,7.75)"/>
<path d="M0 0 C0.33 0.66 0.66 1.32 1 2 C2.32 2 3.64 2 5 2 C4.67 3.32 4.34 4.64 4 6 C4 5.34 4 4.68 4 4 C2.68 4 1.36 4 0 4 C-0.12375 4.680625 -0.2475 5.36125 -0.375 6.0625 C-1.09100877 9.4277412 -2.02945125 12.70013425 -3 16 C-3.66 16 -4.32 16 -5 16 C-5 14.68 -5 13.36 -5 12 C-5.99 12 -6.98 12 -8 12 C-8 11.34 -8 10.68 -8 10 C-6.35 10 -4.7 10 -3 10 C-2.814375 8.3603125 -2.814375 8.3603125 -2.625 6.6875 C-2 3 -2 3 0 0 Z " fill="#FEF6EA" transform="translate(75,110)"/>
<path d="M0 0 C0.66 0 1.32 0 2 0 C1.67 1.98 1.34 3.96 1 6 C2.32 6 3.64 6 5 6 C5 7.32 5 8.64 5 10 C2.525 9.01 2.525 9.01 0 8 C-0.33 9.65 -0.66 11.3 -1 13 C-1.99 12.67 -2.98 12.34 -4 12 C-3.7215625 10.824375 -3.7215625 10.824375 -3.4375 9.625 C-2.74037734 7.02910225 -2.74037734 7.02910225 -4 5 C-3.01 5 -2.02 5 -1 5 C-0.67 3.35 -0.34 1.7 0 0 Z " fill="#FEF1E8" transform="translate(61,86)"/>
<path d="M0 0 C1.33333333 0.33333333 2.66666667 0.66666667 4 1 C4.70640625 1.17660156 5.4128125 1.35320312 6.140625 1.53515625 C8.09375 2.0234375 10.046875 2.51171875 12 3 C12 3.99 12 4.98 12 6 C8.7 5.67 5.4 5.34 2 5 C2 5.66 2 6.32 2 7 C3.32 7.33 4.64 7.66 6 8 C3.3333581 9.33332095 1.83319697 8.67102033 -1 8 C-0.67 5.36 -0.34 2.72 0 0 Z " fill="#E5BCA6" transform="translate(56,108)"/>
<path d="M0 0 C2.64 0.33 5.28 0.66 8 1 C7.67 3.64 7.34 6.28 7 9 C6.01 9 5.02 9 4 9 C4.33 7.35 4.66 5.7 5 4 C4.01 4 3.02 4 2 4 C2 4.99 2 5.98 2 7 C1.01 7 0.02 7 -1 7 C-0.67 4.69 -0.34 2.38 0 0 Z " fill="#E9BDAB" transform="translate(98,55)"/>
<path d="M0 0 C0.66 0 1.32 0 2 0 C2.22036864 3.85645121 1.60355101 6.49223216 0 10 C1.32 10 2.64 10 4 10 C4 10.66 4 11.32 4 12 C2.35 12 0.7 12 -1 12 C-0.67 13.32 -0.34 14.64 0 16 C-0.99 16.33 -1.98 16.66 -3 17 C-4.61125582 12.97186045 -3.30654483 9.98840002 -2 6 C-1.62875 4.865625 -1.2575 3.73125 -0.875 2.5625 C-0.58625 1.716875 -0.2975 0.87125 0 0 Z " fill="#FFF7F0" transform="translate(54,90)"/>
<path d="M0 0 C1 3 1 3 1 5 C1.99 5.33 2.98 5.66 4 6 C4 6.99 4 7.98 4 9 C0.64566891 8.05066101 -2.69246505 7.10251165 -6 6 C-6.33 7.65 -6.66 9.3 -7 11 C-7.66 10.67 -8.32 10.34 -9 10 C-8.34 8.02 -7.68 6.04 -7 4 C-5.02 4 -3.04 4 -1 4 C-0.67 2.68 -0.34 1.36 0 0 Z " fill="#FEF6EC" transform="translate(62,102)"/>
<path d="M0 0 C0.99 0 1.98 0 3 0 C2.814375 0.61875 2.62875 1.2375 2.4375 1.875 C1.76313824 4.04160178 1.76313824 4.04160178 3 6 C3.99 6 4.98 6 6 6 C6 6.99 6 7.98 6 9 C3.03 8.505 3.03 8.505 0 8 C0 8.66 0 9.32 0 10 C-1.65 10.33 -3.3 10.66 -5 11 C-5 9.68 -5 8.36 -5 7 C-3.68 7 -2.36 7 -1 7 C-0.67 4.69 -0.34 2.38 0 0 Z " fill="#F7E2CD" transform="translate(100,66)"/>
<path d="M0 0 C5.445 1.485 5.445 1.485 11 3 C11 3.66 11 4.32 11 5 C11.99 4.67 12.98 4.34 14 4 C14.33 3.01 14.66 2.02 15 1 C15.66 1 16.32 1 17 1 C16.67 2.98 16.34 4.96 16 7 C13.20215289 7 11.0209322 6.62804225 8.3125 6 C7.50425781 5.814375 6.69601563 5.62875 5.86328125 5.4375 C4.94095703 5.2209375 4.94095703 5.2209375 4 5 C4 4.34 4 3.68 4 3 C2.68 3 1.36 3 0 3 C0 2.01 0 1.02 0 0 Z " fill="#FEF8EB" transform="translate(66,103)"/>
<path d="M0 0 C0.66 0 1.32 0 2 0 C0.28295898 6.08769088 -2.47892387 12.47892387 -7 17 C-7.99 16.67 -8.98 16.34 -10 16 C-9.61328125 15.43152344 -9.2265625 14.86304687 -8.828125 14.27734375 C-5.68169447 9.61221532 -2.72381035 4.92381101 0 0 Z " fill="#D36152" transform="translate(48,71)"/>
<path d="M0 0 C0.66 0 1.32 0 2 0 C2 0.99 2 1.98 2 3 C3.65 2.67 5.3 2.34 7 2 C7 2.66 7 3.32 7 4 C9.64 4.33 12.28 4.66 15 5 C15 5.66 15 6.32 15 7 C9.06 6.34 3.12 5.68 -3 5 C-3 4.34 -3 3.68 -3 3 C-2.01 3 -1.02 3 0 3 C0 2.01 0 1.02 0 0 Z " fill="#DC9165" transform="translate(93,74)"/>
<path d="M0 0 C0.66 0 1.32 0 2 0 C1.67 2.31 1.34 4.62 1 7 C-0.98 7.33 -2.96 7.66 -5 8 C-5 8.66 -5 9.32 -5 10 C-5.99 10 -6.98 10 -8 10 C-7.8125 8.1875 -7.8125 8.1875 -7 6 C-5.36368108 4.95107762 -3.69514137 3.95093297 -2 3 C-1.34 2.01 -0.68 1.02 0 0 Z " fill="#F0D6C7" transform="translate(102,46)"/>
<path d="M0 0 C0.33 0 0.66 0 1 0 C1.22509088 4.29096169 1.42723952 8.58269873 1.625 12.875 C1.68945312 14.09832031 1.75390625 15.32164063 1.8203125 16.58203125 C1.871875 17.74863281 1.9234375 18.91523437 1.9765625 20.1171875 C2.02893066 21.19597168 2.08129883 22.27475586 2.13525391 23.38623047 C2 26 2 26 0 28 C-1.4606285 25.35261084 -2 24.10551666 -2 21 C-1.34 21 -0.68 21 0 21 C0 14.07 0 7.14 0 0 Z " fill="#E26B62" transform="translate(13,76)"/>
<path d="M0 0 C0.99 0 1.98 0 3 0 C3.99 2.31 4.98 4.62 6 7 C7.65 6.67 9.3 6.34 11 6 C11 6.66 11 7.32 11 8 C10.34 8 9.68 8 9 8 C9 9.65 9 11.3 9 13 C8.67 12.34 8.34 11.68 8 11 C7.34 11 6.68 11 6 11 C5.67 11.66 5.34 12.32 5 13 C3.35 8.71 1.7 4.42 0 0 Z " fill="#DC9376" transform="translate(78,56)"/>
<path d="M0 0 C4.3177458 0.50797009 8.03302114 1.19682779 12 3 C11.42415568 5.38564077 10.77772405 7.66682784 10 10 C9.34 10 8.68 10 8 10 C8 8.02 8 6.04 8 4 C5.36 3.67 2.72 3.34 0 3 C0 2.01 0 1.02 0 0 Z " fill="#E9B8A3" transform="translate(72,108)"/>
<path d="M0 0 C2.85498939 0.84764087 5.31602518 1.97433309 7.95703125 3.34765625 C8.84003906 3.80269531 9.72304687 4.25773437 10.6328125 4.7265625 C11.62861328 5.25056641 11.62861328 5.25056641 12.64453125 5.78515625 C12.64453125 6.11515625 12.64453125 6.44515625 12.64453125 6.78515625 C6.22461999 6.21449747 0.62863662 4.11170716 -5.35546875 1.78515625 C-2.35546875 -0.21484375 -2.35546875 -0.21484375 0 0 Z " fill="#E69E61" transform="translate(114.35546875,81.21484375)"/>
<path d="M0 0 C0.33 0.66 0.66 1.32 1 2 C2.32 1.67 3.64 1.34 5 1 C4.814375 1.61875 4.62875 2.2375 4.4375 2.875 C3.76313824 5.04160178 3.76313824 5.04160178 5 7 C5.99 7.66 6.98 8.32 8 9 C7.34 9 6.68 9 6 9 C5.67 9.99 5.34 10.98 5 12 C4.5875 11.443125 4.175 10.88625 3.75 10.3125 C1.29814955 7.07255477 -1.12429015 3.87570985 -4 1 C-2 0 -2 0 0 0 Z " fill="#E6A76D" transform="translate(129,65)"/>
<path d="M0 0 C2.3125 2 2.3125 2 4 4 C3.13375 3.608125 2.2675 3.21625 1.375 2.8125 C-1.97864769 1.68390982 -1.97864769 1.68390982 -5.0625 3.0625 C-8.12712614 5.08384916 -10.44758359 7.37668313 -13 10 C-13.66 10 -14.32 10 -15 10 C-12.70234198 3.79632334 -6.65944696 -0.7927913 0 0 Z " fill="#FCE4DA" transform="translate(67,40)"/>
<path d="M0 0 C0.33 0 0.66 0 1 0 C1.33 1.65 1.66 3.3 2 5 C2.33 5 2.66 5 3 5 C3 10.61 3 16.22 3 22 C2.34 22 1.68 22 1 22 C0.18565857 19.14839609 -0.11881242 16.63373869 -0.09765625 13.671875 C-0.09282227 12.47304687 -0.09282227 12.47304687 -0.08789062 11.25 C-0.07951172 10.425 -0.07113281 9.6 -0.0625 8.75 C-0.05798828 7.90953125 -0.05347656 7.0690625 -0.04882812 6.203125 C-0.03707961 4.13538599 -0.01914522 2.06768376 0 0 Z " fill="#DB574E" transform="translate(10,75)"/>
<path d="M0 0 C2.31 0.33 4.62 0.66 7 1 C7 2.65 7 4.3 7 6 C7.99 6.33 8.98 6.66 10 7 C10 8.98 10 10.96 10 13 C9.7525 12.360625 9.505 11.72125 9.25 11.0625 C8.18437567 8.81258459 8.18437567 8.81258459 5.875 8.25 C5.25625 8.1675 4.6375 8.085 4 8 C4.33 6.35 4.66 4.7 5 3 C2.03 2.505 2.03 2.505 -1 2 C-0.67 1.34 -0.34 0.68 0 0 Z " fill="#FDE3CF" transform="translate(66,84)"/>
<path d="M0 0 C0.33 0.99 0.66 1.98 1 3 C1.66 3 2.32 3 3 3 C2.01 6.96 1.02 10.92 0 15 C-0.66 14.01 -1.32 13.02 -2 12 C-2.66 12.99 -3.32 13.98 -4 15 C-3.43179252 9.54520815 -2.05362055 5.08940744 0 0 Z " fill="#DE675C" transform="translate(16,53)"/>
<path d="M0 0 C0.66 0 1.32 0 2 0 C2.86343824 2.12124966 3.71550648 4.24713072 4.5625 6.375 C5.27599609 8.15003906 5.27599609 8.15003906 6.00390625 9.9609375 C7 13 7 13 6 15 C5.34 15 4.68 15 4 15 C3.32532438 13.25307205 2.66055844 11.50231475 2 9.75 C1.62875 8.77546875 1.2575 7.8009375 0.875 6.796875 C0 4 0 4 0 0 Z " fill="#E08D63" transform="translate(89,81)"/>
<path d="M0 0 C6.52307692 0.61538462 6.52307692 0.61538462 8.9375 2.5625 C9.288125 3.036875 9.63875 3.51125 10 4 C9.01 4.33 8.02 4.66 7 5 C7 4.34 7 3.68 7 3 C4.48916886 4.25541557 4.12874554 5.50063488 3 8 C3 7.34 3 6.68 3 6 C2.01 6 1.02 6 0 6 C-1.125 2.25 -1.125 2.25 0 0 Z " fill="#FBE7D3" transform="translate(87,67)"/>
<path d="M0 0 C0.94552734 0.16242187 0.94552734 0.16242187 1.91015625 0.328125 C2.57015625 1.318125 3.23015625 2.308125 3.91015625 3.328125 C2.71390625 3.225 1.51765625 3.121875 0.28515625 3.015625 C-3.20544054 2.98456987 -4.92708743 3.5666932 -7.58984375 5.828125 C-8.41484375 6.653125 -9.23984375 7.478125 -10.08984375 8.328125 C-10.74984375 7.668125 -11.40984375 7.008125 -12.08984375 6.328125 C-5.97873264 0.21701389 -5.97873264 0.21701389 0 0 Z " fill="#D87060" transform="translate(60.08984375,63.671875)"/>
<path d="M0 0 C-0.99 0.66 -1.98 1.32 -3 2 C-1.68 2.66 -0.36 3.32 1 4 C0.34 4.66 -0.32 5.32 -1 6 C-3.125 5.625 -3.125 5.625 -5 5 C-5 6.32 -5 7.64 -5 9 C-5.99 9 -6.98 9 -8 9 C-7.4140625 2.84765625 -7.4140625 2.84765625 -7 1 C-4.53721199 -0.231394 -2.7204945 -0.07159196 0 0 Z " fill="#E8B19A" transform="translate(47,91)"/>
<path d="M0 0 C1.65 0 3.3 0 5 0 C5 1.32 5 2.64 5 4 C4.34 4 3.68 4 3 4 C3 5.32 3 6.64 3 8 C0.69 7.67 -1.62 7.34 -4 7 C-3.01 6.67 -2.02 6.34 -1 6 C-0.67 4.02 -0.34 2.04 0 0 Z " fill="#EEC7B7" transform="translate(109,48)"/>
<path d="M0 0 C0.33 0.66 0.66 1.32 1 2 C-2.94291645 7.8845041 -7.1154959 12.05708355 -13 16 C-13.66 15.67 -14.32 15.34 -15 15 C-13.62714844 13.75283203 -13.62714844 13.75283203 -12.2265625 12.48046875 C-11.02588968 11.38297875 -9.8253772 10.28531332 -8.625 9.1875 C-8.02171875 8.64029297 -7.4184375 8.09308594 -6.796875 7.52929688 C-6.21679688 6.99755859 -5.63671875 6.46582031 -5.0390625 5.91796875 C-4.50490723 5.43094482 -3.97075195 4.9439209 -3.42041016 4.44213867 C-1.76545531 2.85257274 -1.76545531 2.85257274 0 0 Z " fill="#FEF3DD" transform="translate(153,133)"/>
<path d="M0 0 C5.94 0.99 5.94 0.99 12 2 C12 3.32 12 4.64 12 6 C6.06 4.515 6.06 4.515 0 3 C0 2.01 0 1.02 0 0 Z " fill="#E8B89D" transform="translate(108,58)"/>
<path d="M0 0 C4.0042343 3.49087093 5.62671065 5.64951939 6 11 C5.01 11 4.02 11 3 11 C-0.51460674 4.27640449 -0.51460674 4.27640449 -1 1 C-0.67 0.67 -0.34 0.34 0 0 Z " fill="#E76E47" transform="translate(71,79)"/>
<path d="M0 0 C0 0.66 0 1.32 0 2 C0.66 2.33 1.32 2.66 2 3 C1.01 3.495 1.01 3.495 0 4 C0 5.32 0 6.64 0 8 C-0.2981424 9.34164079 -0.62243192 10.67851173 -1 12 C-1.99 12 -2.98 12 -4 12 C-3.33333333 8.66666667 -2.66666667 5.33333333 -2 2 C-2.66 1.67 -3.32 1.34 -4 1 C-2 0 -2 0 0 0 Z " fill="#E7BBAC" transform="translate(58,88)"/>
<path d="M0 0 C0.99 0.33 1.98 0.66 3 1 C2.67 2.65 2.34 4.3 2 6 C3.32 6.33 4.64 6.66 6 7 C6 7.99 6 8.98 6 10 C4.35 9.67 2.7 9.34 1 9 C1 8.01 1 7.02 1 6 C0.01 5.67 -0.98 5.34 -2 5 C-1.34 5 -0.68 5 0 5 C0 3.35 0 1.7 0 0 Z " fill="#F4D5AF" transform="translate(142,79)"/>
<path d="M0 0 C0.99 0.33 1.98 0.66 3 1 C2.67 3.31 2.34 5.62 2 8 C0.68 8 -0.64 8 -2 8 C-2 7.34 -2 6.68 -2 6 C-3.32 6 -4.64 6 -6 6 C-6 5.34 -6 4.68 -6 4 C-4.02 4 -2.04 4 0 4 C0 2.68 0 1.36 0 0 Z " fill="#E6B8A8" transform="translate(134,56)"/>
<path d="M0 0 C-2 3 -2 3 -4.125 3.6875 C-7.77989122 4.08477078 -11.32361387 4.06231163 -15 4 C-9.52123488 0.34748992 -6.56703301 -0.2189011 0 0 Z " fill="#E4734C" transform="translate(80,6)"/>
<path d="M0 0 C0.54140625 0.32742187 1.0828125 0.65484375 1.640625 0.9921875 C4.50719067 2.21664767 6.6452987 2.19892146 9.75 2.125 C10.73484375 2.10695312 11.7196875 2.08890625 12.734375 2.0703125 C13.48203125 2.04710937 14.2296875 2.02390625 15 2 C15 2.66 15 3.32 15 4 C11.85069107 5.04976964 9.61185544 5.10131595 6.3125 5.0625 C5.31863281 5.05347656 4.32476562 5.04445312 3.30078125 5.03515625 C2.16189453 5.01775391 2.16189453 5.01775391 1 5 C0.67 3.35 0.34 1.7 0 0 Z " fill="#FCEDD9" transform="translate(108,127)"/>
<path d="M0 0 C0.66 0 1.32 0 2 0 C3.75747614 4.50353262 4.19294408 8.17639811 4 13 C0.72634348 9.40953801 -0.67458078 6.88128836 -1 2 C-0.67 1.34 -0.34 0.68 0 0 Z " fill="#DA584C" transform="translate(14,102)"/>
<path d="M0 0 C2 1.0625 2 1.0625 4 3 C4.25 6.6875 4.25 6.6875 4 10 C2.35 9.67 0.7 9.34 -1 9 C-1 8.01 -1 7.02 -1 6 C-0.34 6 0.32 6 1 6 C0.67 4.02 0.34 2.04 0 0 Z " fill="#E88853" transform="translate(94,95)"/>
<path d="M0 0 C0.66 0 1.32 0 2 0 C2 0.66 2 1.32 2 2 C2.99 1.34 3.98 0.68 5 0 C5.99 0.33 6.98 0.66 8 1 C7.67 1.66 7.34 2.32 7 3 C3.9375 3.625 3.9375 3.625 1 4 C1 4.99 1 5.98 1 7 C-0.32 7 -1.64 7 -3 7 C-3 6.34 -3 5.68 -3 5 C-2.34 5 -1.68 5 -1 5 C-0.67 3.35 -0.34 1.7 0 0 Z " fill="#FEEFDD" transform="translate(92,70)"/>
<path d="M0 0 C0.99 0 1.98 0 3 0 C2.67 2.31 2.34 4.62 2 7 C1.01 7.33 0.02 7.66 -1 8 C-1.33 8.99 -1.66 9.98 -2 11 C-3.13643966 7.59068103 -2.86747764 6.99664544 -1.5625 3.8125 C-1.13130859 2.73935547 -1.13130859 2.73935547 -0.69140625 1.64453125 C-0.46324219 1.10183594 -0.23507813 0.55914062 0 0 Z " fill="#EBCAB2" transform="translate(87,108)"/>
<path d="M0 0 C2.64 0 5.28 0 8 0 C8 0.66 8 1.32 8 2 C9.65 2 11.3 2 13 2 C13 2.99 13 3.98 13 5 C10.69 4.67 8.38 4.34 6 4 C6 3.34 6 2.68 6 2 C4.35 2.33 2.7 2.66 1 3 C0.67 2.01 0.34 1.02 0 0 Z " fill="#FEF6E9" transform="translate(57,112)"/>
<path d="M0 0 C0.79921875 0.00902344 1.5984375 0.01804687 2.421875 0.02734375 C3.02515625 0.03894531 3.6284375 0.05054687 4.25 0.0625 C3.92 1.0525 3.59 2.0425 3.25 3.0625 C2.32767578 3.02769531 2.32767578 3.02769531 1.38671875 2.9921875 C0.57847656 2.97414063 -0.22976562 2.95609375 -1.0625 2.9375 C-2.26326172 2.90269531 -2.26326172 2.90269531 -3.48828125 2.8671875 C-6.03388576 2.90432678 -6.03388576 2.90432678 -8.75 5.0625 C-8.75 3.7425 -8.75 2.4225 -8.75 1.0625 C-5.75519083 0.1901588 -3.11424089 -0.04579766 0 0 Z " fill="#FDDFCE" transform="translate(83.75,78.9375)"/>
<path d="M0 0 C0.99 0 1.98 0 3 0 C3 0.99 3 1.98 3 3 C2.34 3 1.68 3 1 3 C1.33 3.66 1.66 4.32 2 5 C4.02463255 5.65213292 4.02463255 5.65213292 6 6 C6 6.99 6 7.98 6 9 C3.69 8.67 1.38 8.34 -1 8 C-0.67 5.36 -0.34 2.72 0 0 Z " fill="#E1B59D" transform="translate(92,58)"/>
<path d="M0 0 C0.66 0.33 1.32 0.66 2 1 C-3.49360762 6.05411901 -10.98725938 5.14311716 -18 5 C-18 4.67 -18 4.34 -18 4 C-16.95199219 3.79503906 -15.90398437 3.59007812 -14.82421875 3.37890625 C-13.44529231 3.10687314 -12.06638717 2.83473209 -10.6875 2.5625 C-9.65206055 2.36043945 -9.65206055 2.36043945 -8.59570312 2.15429688 C-5.65710993 1.57225668 -2.84543315 0.94847772 0 0 Z " fill="#FDE3C9" transform="translate(117,159)"/>
<path d="M0 0 C0.99 0 1.98 0 3 0 C5.03684712 4.07369424 5.0257259 6.58937864 4 11 C1.35534962 7.8745041 0.15585285 4.91211733 -1 1 C-0.67 0.67 -0.34 0.34 0 0 Z " fill="#DC655C" transform="translate(16,111)"/>
<path d="M0 0 C-1.38188453 3.21043882 -2.92421903 5.04936365 -5.625 7.25 C-6.57246094 8.03117187 -6.57246094 8.03117187 -7.5390625 8.828125 C-8.02117187 9.21484375 -8.50328125 9.6015625 -9 10 C-9.33 9.01 -9.66 8.02 -10 7 C-8.71372289 5.82739389 -7.42080217 4.6620717 -6.125 3.5 C-5.04605469 2.52546875 -5.04605469 2.52546875 -3.9453125 1.53125 C-2 0 -2 0 0 0 Z " fill="#E2A96A" transform="translate(134,118)"/>
<path d="M0 0 C1.27875 0.28875 2.5575 0.5775 3.875 0.875 C4.95394531 1.11863281 4.95394531 1.11863281 6.0546875 1.3671875 C8 2 8 2 10 4 C8.02 4.66 6.04 5.32 4 6 C4 5.01 4 4.02 4 3 C2.35 2.67 0.7 2.34 -1 2 C-0.67 1.34 -0.34 0.68 0 0 Z " fill="#FEF4E5" transform="translate(110,61)"/>
<path d="M0 0 C0 0.66 0 1.32 0 2 C0.99 2.33 1.98 2.66 3 3 C2.360625 3.12375 1.72125 3.2475 1.0625 3.375 C0.381875 3.58125 -0.29875 3.7875 -1 4 C-1.33 4.66 -1.66 5.32 -2 6 C-2.33 5.01 -2.66 4.02 -3 3 C-4.65 2.67 -6.3 2.34 -8 2 C-4.91190305 0.23537317 -3.76687864 0 0 0 Z " fill="#FEEED7" transform="translate(132,62)"/>
<path d="M0 0 C0.66 0 1.32 0 2 0 C2 1.32 2 2.64 2 4 C3.32 4 4.64 4 6 4 C6 4.99 6 5.98 6 7 C5.34 7 4.68 7 4 7 C4 6.34 4 5.68 4 5 C2.68 5.99 1.36 6.98 0 8 C-0.66 7.34 -1.32 6.68 -2 6 C-2 4.68 -2 3.36 -2 2 C-1.34 2 -0.68 2 0 2 C0 1.34 0 0.68 0 0 Z " fill="#FCEFE3" transform="translate(116,40)"/>
<path d="M0 0 C2.97 0 5.94 0 9 0 C8.67 1.65 8.34 3.3 8 5 C5.33333333 4.33333333 2.66666667 3.66666667 0 3 C0 2.01 0 1.02 0 0 Z " fill="#EBBEA8" transform="translate(70,97)"/>
<path d="M0 0 C1.98 0 3.96 0 6 0 C6 3.86790003 5.72629646 5.01319413 4 8.25 C3.62875 8.95640625 3.2575 9.6628125 2.875 10.390625 C2.58625 10.92171875 2.2975 11.4528125 2 12 C1.67 10.68 1.34 9.36 1 8 C1.66 8 2.32 8 3 8 C3.2502157 5.08365871 3.2502157 5.08365871 3 2 C2.01 1.34 1.02 0.68 0 0 Z " fill="#FDECD6" transform="translate(100,80)"/>
<path d="M0 0 C0.66 0.33 1.32 0.66 2 1 C1.67 1.99 1.34 2.98 1 4 C2.32 4 3.64 4 5 4 C5 4.99 5 5.98 5 7 C3.35 6.67 1.7 6.34 0 6 C0 6.66 0 7.32 0 8 C-0.66 8 -1.32 8 -2 8 C-1.125 2.25 -1.125 2.25 0 0 Z " fill="#FEF5ED" transform="translate(49,110)"/>
<path d="M0 0 C1.2065625 0.0309375 1.2065625 0.0309375 2.4375 0.0625 C1.4475 0.5575 1.4475 0.5575 0.4375 1.0625 C0.4375 1.7225 0.4375 2.3825 0.4375 3.0625 C1.4275 2.7325 2.4175 2.4025 3.4375 2.0625 C3.7675 3.3825 4.0975 4.7025 4.4375 6.0625 C3.1175 6.0625 1.7975 6.0625 0.4375 6.0625 C0.1075 6.7225 -0.2225 7.3825 -0.5625 8.0625 C-1.2225 8.0625 -1.8825 8.0625 -2.5625 8.0625 C-2.2325 6.0825 -1.9025 4.1025 -1.5625 2.0625 C-2.2225 1.7325 -2.8825 1.4025 -3.5625 1.0625 C-2.5625 0.0625 -2.5625 0.0625 0 0 Z " fill="#F6DEC4" transform="translate(93.5625,103.9375)"/>
<path d="M0 0 C2 1.75 2 1.75 4 4 C4 5.32 4 6.64 4 8 C2.02 8 0.04 8 -2 8 C-1.67 6.68 -1.34 5.36 -1 4 C-0.34 4 0.32 4 1 4 C0.67 2.68 0.34 1.36 0 0 Z " fill="#F4D9CA" transform="translate(57,98)"/>
<path d="M0 0 C0.99 0 1.98 0 3 0 C2.67 1.65 2.34 3.3 2 5 C3.32 5.33 4.64 5.66 6 6 C6 6.66 6 7.32 6 8 C3.69 7.67 1.38 7.34 -1 7 C-0.67 4.69 -0.34 2.38 0 0 Z " fill="#D8A997" transform="translate(68,87)"/>
<path d="M0 0 C1.46015291 0.28241641 2.91809793 0.57626614 4.375 0.875 C5.18710938 1.03742188 5.99921875 1.19984375 6.8359375 1.3671875 C9 2 9 2 11 4 C9.37536158 4.05395478 7.75021459 4.09277195 6.125 4.125 C5.22007812 4.14820312 4.31515625 4.17140625 3.3828125 4.1953125 C1 4 1 4 -1 2 C-0.67 1.34 -0.34 0.68 0 0 Z " fill="#EBAD6C" transform="translate(126,86)"/>
<path d="M0 0 C0 0.66 0 1.32 0 2 C-2.97 2.66 -5.94 3.32 -9 4 C-9 3.67 -9 3.34 -9 3 C-10.65 2.67 -12.3 2.34 -14 2 C-14 1.67 -14 1.34 -14 1 C-12.22932584 0.83165067 -10.45845388 0.66538091 -8.6875 0.5 C-7.70136719 0.4071875 -6.71523437 0.314375 -5.69921875 0.21875 C-3 0 -3 0 0 0 Z " fill="#E68D56" transform="translate(112,159)"/>
<path d="M0 0 C1.258125 0.33 2.51625 0.66 3.8125 1 C6.38987302 1.67603227 8.30212925 2 11 2 C11 1.34 11 0.68 11 0 C12.32 0.33 13.64 0.66 15 1 C11.21207852 3.67382693 8.64451328 4.69173602 4 4 C1.625 2 1.625 2 0 0 Z " fill="#FDE8CE" transform="translate(110,124)"/>
<path d="M0 0 C0.99 0.66 1.98 1.32 3 2 C3 2.99 3 3.98 3 5 C2.34 5 1.68 5 1 5 C0.67 6.32 0.34 7.64 0 9 C-0.66 9 -1.32 9 -2 9 C-1.125 2.25 -1.125 2.25 0 0 Z " fill="#EEC0A0" transform="translate(80,99)"/>
<path d="M0 0 C0.33 0.66 0.66 1.32 1 2 C1.66 2.33 2.32 2.66 3 3 C1.35 4.98 -0.3 6.96 -2 9 C-2.66 7.68 -3.32 6.36 -4 5 C-2.68 3.35 -1.36 1.7 0 0 Z " fill="#DD6658" transform="translate(31,30)"/>
<path d="M0 0 C0.66 0 1.32 0 2 0 C5 6.75 5 6.75 5 9 C2 8 2 8 0 5 C-0.125 2.3125 -0.125 2.3125 0 0 Z " fill="#DC5A4A" transform="translate(20,119)"/>
<path d="M0 0 C2.50037734 2.17424117 3.43628586 3.73045798 4 7 C3.01 7.66 2.02 8.32 1 9 C0.01 6.69 -0.98 4.38 -2 2 C-1.34 2 -0.68 2 0 2 C0 1.34 0 0.68 0 0 Z " fill="#EFB56E" transform="translate(158,43)"/>
<path d="M0 0 C-0.99 0.33 -1.98 0.66 -3 1 C-2.67 1.66 -2.34 2.32 -2 3 C-4.31 3.66 -6.62 4.32 -9 5 C-9.33 3.68 -9.66 2.36 -10 1 C-3.71428571 -1.42857143 -3.71428571 -1.42857143 0 0 Z " fill="#E18264" transform="translate(71,8)"/>
<path d="M0 0 C0.99 0.66 1.98 1.32 3 2 C2.34 3.98 1.68 5.96 1 8 C1.66 8.33 2.32 8.66 3 9 C1.35 8.67 -0.3 8.34 -2 8 C-1.34 5.36 -0.68 2.72 0 0 Z " fill="#DA6960" transform="translate(34,80)"/>
<path d="M0 0 C1.98 0.495 1.98 0.495 4 1 C4 1.66 4 2.32 4 3 C4.99 3 5.98 3 7 3 C6.67 3.66 6.34 4.32 6 5 C5.34 4.67 4.68 4.34 4 4 C4.33 4.99 4.66 5.98 5 7 C3.02 7 1.04 7 -1 7 C0.32 6.67 1.64 6.34 3 6 C2.01 4.02 1.02 2.04 0 0 Z " fill="#EDBB77" transform="translate(136,82)"/>
<path d="M0 0 C0.66 0 1.32 0 2 0 C2 2.31 2 4.62 2 7 C1.01 7 0.02 7 -1 7 C-1.625 5.1875 -1.625 5.1875 -2 3 C-1.34 2.01 -0.68 1.02 0 0 Z " fill="#EDCFB9" transform="translate(140,69)"/>
<path d="M0 0 C2.92879371 0.62759865 5.36095629 1.58622659 8 3 C8 3.66 8 4.32 8 5 C6.68 5 5.36 5 4 5 C4 4.34 4 3.68 4 3 C2.68 3 1.36 3 0 3 C0 2.01 0 1.02 0 0 Z " fill="#E9C09D" transform="translate(105,67)"/>
<path d="M0 0 C0.99 0.33 1.98 0.66 3 1 C2.67 2.98 2.34 4.96 2 7 C1.01 7 0.02 7 -1 7 C-0.67 4.69 -0.34 2.38 0 0 Z " fill="#E9CEBA" transform="translate(137,63)"/>
<path d="M0 0 C2.31 0.33 4.62 0.66 7 1 C7.33 1.99 7.66 2.98 8 4 C5.69 3.67 3.38 3.34 1 3 C0.67 2.01 0.34 1.02 0 0 Z " fill="#E6B89B" transform="translate(68,102)"/>
<path d="M0 0 C2.31 0.33 4.62 0.66 7 1 C7 1.99 7 2.98 7 4 C5.02 4 3.04 4 1 4 C0.67 2.68 0.34 1.36 0 0 Z " fill="#E3B39B" transform="translate(125,53)"/>
<path d="M0 0 C1.98 0.66 3.96 1.32 6 2 C6 2.66 6 3.32 6 4 C2.625 4.125 2.625 4.125 -1 4 C-1.66 3.34 -2.32 2.68 -3 2 C-2.01 2 -1.02 2 0 2 C0 1.34 0 0.68 0 0 Z " fill="#E7975D" transform="translate(114,8)"/>
<path d="M0 0 C0.99 0 1.98 0 3 0 C3 0.99 3 1.98 3 3 C2.34 3 1.68 3 1 3 C1.33 4.32 1.66 5.64 2 7 C1.01 7.33 0.02 7.66 -1 8 C-0.67 5.36 -0.34 2.72 0 0 Z " fill="#E3B99D" transform="translate(73,119)"/>
<path d="M0 0 C0.99 1.32 1.98 2.64 3 4 C0.53721199 5.231394 -1.2795055 5.07159196 -4 5 C-4.33 4.01 -4.66 3.02 -5 2 C-3.35 1.34 -1.7 0.68 0 0 Z " fill="#E38165" transform="translate(69,80)"/>
<path d="M0 0 C2.1875 -0.3125 2.1875 -0.3125 5 0 C7.8125 2.5 7.8125 2.5 10 5 C9.67 5.66 9.34 6.32 9 7 C7.4972763 6.02501855 5.99788037 5.04490611 4.5 4.0625 C3.6646875 3.51722656 2.829375 2.97195312 1.96875 2.41015625 C1.3190625 1.94480469 0.669375 1.47945313 0 1 C0 0.67 0 0.34 0 0 Z " fill="#FEEBDF" transform="translate(56,66)"/>
<path d="M0 0 C0.99 0 1.98 0 3 0 C2.67 2.31 2.34 4.62 2 7 C1.01 7 0.02 7 -1 7 C-0.67 4.69 -0.34 2.38 0 0 Z " fill="#E4B6A0" transform="translate(103,57)"/>
<path d="M0 0 C2.31 0.33 4.62 0.66 7 1 C7 1.99 7 2.98 7 4 C4.69 3.67 2.38 3.34 0 3 C0 2.01 0 1.02 0 0 Z " fill="#E4AF94" transform="translate(72,108)"/>
<path d="M0 0 C0.99 0 1.98 0 3 0 C2.67 2.31 2.34 4.62 2 7 C1.01 7 0.02 7 -1 7 C-0.67 4.69 -0.34 2.38 0 0 Z " fill="#DDA997" transform="translate(53,102)"/>
<path d="M0 0 C2.31 0.33 4.62 0.66 7 1 C7 1.99 7 2.98 7 4 C4.69 3.67 2.38 3.34 0 3 C0 2.01 0 1.02 0 0 Z " fill="#E2B7A0" transform="translate(44,99)"/>
<path d="M0 0 C0.33 0 0.66 0 1 0 C1.3636198 4.24223102 0.5393228 6.58168085 -2 10 C-2.66 10 -3.32 10 -4 10 C-2.8905928 6.51329166 -1.73662334 3.22515763 0 0 Z " fill="#FEE4DD" transform="translate(48,75)"/>
<path d="M0 0 C2 2 2 2 2 5 C-0.97 5 -3.94 5 -7 5 C-4 3 -4 3 0 3 C0 2.01 0 1.02 0 0 Z " fill="#FEE5D1" transform="translate(84,72)"/>
<path d="M0 0 C0.66 0 1.32 0 2 0 C1.67 2.31 1.34 4.62 1 7 C0.01 7 -0.98 7 -2 7 C-2.125 4.625 -2.125 4.625 -2 2 C-1.34 1.34 -0.68 0.68 0 0 Z " fill="#DEAC9B" transform="translate(116,50)"/>
<path d="M0 0 C2.375 0.25 2.375 0.25 5 1 C6.3125 3.0625 6.3125 3.0625 7 5 C4.69 4.34 2.38 3.68 0 3 C0 2.01 0 1.02 0 0 Z " fill="#E6C2AD" transform="translate(126,48)"/>
<path d="M0 0 C0.66 0 1.32 0 2 0 C1.125 4.75 1.125 4.75 0 7 C-0.66 7 -1.32 7 -2 7 C-2.125 4.625 -2.125 4.625 -2 2 C-1.34 1.34 -0.68 0.68 0 0 Z " fill="#D85448" transform="translate(19,49)"/>
<path d="M0 0 C0.66 0 1.32 0 2 0 C1.67 2.31 1.34 4.62 1 7 C0.01 7 -0.98 7 -2 7 C-1.125 1.125 -1.125 1.125 0 0 Z " fill="#DFAE9C" transform="translate(114,39)"/>
<path d="M0 0 C0.99 0 1.98 0 3 0 C3 0.66 3 1.32 3 2 C2.34 2 1.68 2 1 2 C1 3.65 1 5.3 1 7 C0.01 7.495 0.01 7.495 -1 8 C-1.93065133 5.39417629 -2.14917407 4.35801776 -1.0625 1.75 C-0.711875 1.1725 -0.36125 0.595 0 0 Z " fill="#FEF6EE" transform="translate(61,118)"/>
<path d="M0 0 C2.31 0.33 4.62 0.66 7 1 C7 1.99 7 2.98 7 4 C6.01 4 5.02 4 4 4 C4 3.34 4 2.68 4 2 C2.68 2.33 1.36 2.66 0 3 C0 2.01 0 1.02 0 0 Z " fill="#E0AE90" transform="translate(64,116)"/>
<path d="M0 0 C0.99 0.33 1.98 0.66 3 1 C1.515 4.96 1.515 4.96 0 9 C-0.66 8.67 -1.32 8.34 -2 8 C-1.33333333 5.33333333 -0.66666667 2.66666667 0 0 Z " fill="#FFF9ED" transform="translate(84,110)"/>
<path d="M0 0 C2.31 0.33 4.62 0.66 7 1 C7 1.99 7 2.98 7 4 C4.03 3.505 4.03 3.505 1 3 C0.67 2.01 0.34 1.02 0 0 Z " fill="#E1B097" transform="translate(61,110)"/>
<path d="M0 0 C1.65 0 3.3 0 5 0 C5 0.66 5 1.32 5 2 C4.01 2 3.02 2 2 2 C2 2.99 2 3.98 2 5 C1.01 5 0.02 5 -1 5 C-0.67 3.35 -0.34 1.7 0 0 Z " fill="#EECDB3" transform="translate(83,104)"/>
<path d="M0 0 C0 0.66 0 1.32 0 2 C-1.65 2.66 -3.3 3.32 -5 4 C-5.99 3.01 -6.98 2.02 -8 1 C-5.07175348 0.02391783 -3.04386724 -0.08226668 0 0 Z " fill="#DE6953" transform="translate(58,86)"/>
<path d="M0 0 C2.31 0.33 4.62 0.66 7 1 C7 1.66 7 2.32 7 3 C4.69 3 2.38 3 0 3 C0 2.01 0 1.02 0 0 Z " fill="#FFFAF0" transform="translate(100,74)"/>
<path d="M0 0 C0.99 0 1.98 0 3 0 C2.67 2.31 2.34 4.62 2 7 C1.01 7 0.02 7 -1 7 C-0.67 4.69 -0.34 2.38 0 0 Z " fill="#DCAD91" transform="translate(100,66)"/>
<path d="M0 0 C0.66 0 1.32 0 2 0 C1.67 2.31 1.34 4.62 1 7 C0.01 7 -0.98 7 -2 7 C-1.34 4.69 -0.68 2.38 0 0 Z " fill="#E1B3A2" transform="translate(102,46)"/>
<path d="M0 0 C0.99 0.33 1.98 0.66 3 1 C-0.465 3.97 -0.465 3.97 -4 7 C-3.04065919 3.16263678 -2.76390737 2.40339772 0 0 Z " fill="#D06A55" transform="translate(55,42)"/>
<path d="M0 0 C1.32 1.32 2.64 2.64 4 4 C3.01 4.495 3.01 4.495 2 5 C2.33 6.32 2.66 7.64 3 9 C1.68 7.68 0.36 6.36 -1 5 C-0.34 4.67 0.32 4.34 1 4 C0.67 2.68 0.34 1.36 0 0 Z " fill="#DC6A5E" transform="translate(24,124)"/>
<path d="M0 0 C2.31 0.33 4.62 0.66 7 1 C7 1.99 7 2.98 7 4 C4.61435923 3.42415568 2.33317216 2.77772405 0 2 C0 1.34 0 0.68 0 0 Z " fill="#E2B698" transform="translate(49,116)"/>
<path d="M0 0 C0.99 0 1.98 0 3 0 C2.67 2.31 2.34 4.62 2 7 C1.34 7 0.68 7 0 7 C-0.33 6.01 -0.66 5.02 -1 4 C-0.34 4 0.32 4 1 4 C0.67 2.68 0.34 1.36 0 0 Z " fill="#E5C0B0" transform="translate(45,110)"/>
<path d="M0 0 C0 0.99 0 1.98 0 3 C-2.31 3 -4.62 3 -7 3 C-7 2.34 -7 1.68 -7 1 C-4.50935112 0.31292445 -2.62113708 0 0 0 Z " fill="#E7493C" transform="translate(40,88)"/>
<path d="M0 0 C0.33 0.66 0.66 1.32 1 2 C2.98 2 4.96 2 7 2 C7 2.33 7 2.66 7 3 C3.7 3.33 0.4 3.66 -3 4 C-2.01 2.68 -1.02 1.36 0 0 Z " fill="#FDC9C0" transform="translate(43,85)"/>
<path d="M0 0 C1.98 0.66 3.96 1.32 6 2 C6 2.99 6 3.98 6 5 C5.34 5 4.68 5 4 5 C4 4.34 4 3.68 4 3 C2.68 3 1.36 3 0 3 C0 2.01 0 1.02 0 0 Z " fill="#E5B797" transform="translate(90,67)"/>
<path d="M0 0 C2.875 -0.1875 2.875 -0.1875 6 0 C6.66 0.99 7.32 1.98 8 3 C5.03 2.67 2.06 2.34 -1 2 C-0.67 1.34 -0.34 0.68 0 0 Z " fill="#D6684E" transform="translate(56,64)"/>
</svg>
